<svg width="29" height="20" viewBox="0 0 29 20" fill="none" xmlns="http://www.w3.org/2000/svg">
<path d="M28.1666 2.01215C28.1666 1.98166 28.1819 1.95117 28.1819 1.92068L19.5789 10.1676L28.1666 18.1554C28.1666 18.0944 28.1513 18.0335 28.1513 17.9877V2.01215H28.1666Z" fill="#DFE6EB"/>
<path d="M18.2774 11.4482L14.7566 14.8019C14.5729 14.9695 14.3433 15.061 14.1137 15.061C13.8841 15.061 13.6698 14.9848 13.4861 14.8171L9.9959 11.5702L1.34695 19.8628C1.56126 19.939 1.77557 20 2.0205 20H26.2222C26.5743 20 26.8958 19.8933 27.1866 19.7409L18.2774 11.4482Z" fill="#DFE6EB"/>
<path d="M14.1139 12.8811L27.248 0.289634C26.9418 0.121951 26.6051 0 26.2224 0H2.02064C1.53079 0 1.10217 0.182927 0.750092 0.47256L14.1139 12.8811Z" fill="#DFE6EB"/>
<path d="M0 2.31712V17.9878C0 18.1708 0.0459236 18.3384 0.0918472 18.5061L8.63363 10.3202L0 2.31712Z" fill="#DFE6EB"/>
</svg>
