<svg width="17" height="15" viewBox="0 0 17 15" fill="none" xmlns="http://www.w3.org/2000/svg">
<path fill-rule="evenodd" clip-rule="evenodd" d="M8.5 13.6541C7.60817 12.7735 -1.08192 8.27123 1.46597 3.18078C3.92191 -1.72597 8.5 3.18078 8.5 3.18078M8.5 13.6541C9.39183 12.7735 18.0819 8.27123 15.534 3.18078C13.0781 -1.72597 8.5 3.18078 8.5 3.18078" fill="#FCC3C3"/>
<path d="M7.79741 14.3657C8.19042 14.7537 8.82357 14.7497 9.2116 14.3566C9.59963 13.9636 9.59559 13.3305 9.20259 12.9425L7.79741 14.3657ZM1.46597 3.18078L0.571728 2.73319L1.46597 3.18078ZM7.76883 3.86297C8.1456 4.26679 8.77838 4.28871 9.1822 3.91195C9.58601 3.53518 9.60794 2.90239 9.23117 2.49858L7.76883 3.86297ZM7.79741 12.9425C7.40441 13.3305 7.40037 13.9636 7.7884 14.3566C8.17643 14.7497 8.80958 14.7537 9.20259 14.3657L7.79741 12.9425ZM15.534 3.18078L16.4283 2.73319L15.534 3.18078ZM7.76883 2.49858C7.39206 2.90239 7.41399 3.53518 7.8178 3.91195C8.22162 4.28871 8.8544 4.26679 9.23117 3.86297L7.76883 2.49858ZM9.20259 12.9425C9.01253 12.7548 8.6914 12.5326 8.40144 12.3344C8.06797 12.1065 7.68523 11.8521 7.23694 11.5407C6.35178 10.9258 5.31039 10.1555 4.38275 9.27201C3.4468 8.38061 2.68458 7.42783 2.29051 6.46287C1.91151 5.53483 1.8718 4.60415 2.36021 3.62836L0.571728 2.73319C-0.213814 4.30263 -0.122719 5.84366 0.438954 7.21901C0.985543 8.55743 1.97386 9.73972 3.00343 10.7203C4.0413 11.7087 5.18041 12.5473 6.09585 13.1832C6.54785 13.4973 6.97044 13.7789 7.27296 13.9856C7.4298 14.0928 7.55556 14.1806 7.65261 14.2521C7.70072 14.2876 7.73723 14.3158 7.76407 14.3375C7.79251 14.3606 7.801 14.3692 7.79741 14.3657L9.20259 12.9425ZM2.36021 3.62836C2.8863 2.57729 3.4445 2.20041 3.8858 2.06937C4.35549 1.9299 4.90656 2.0049 5.51473 2.26189C6.11842 2.51698 6.68372 2.91273 7.11229 3.26409C7.32276 3.43665 7.49179 3.59148 7.60652 3.70145C7.66372 3.75628 7.70697 3.79952 7.73465 3.82769C7.74848 3.84176 7.75838 3.85204 7.76415 3.85807C7.76704 3.86109 7.76889 3.86304 7.76968 3.86388C7.77007 3.8643 7.7702 3.86443 7.77006 3.86429C7.76999 3.86421 7.76985 3.86407 7.76965 3.86385C7.76955 3.86374 7.76934 3.86352 7.76929 3.86346C7.76907 3.86323 7.76883 3.86297 8.5 3.18078C9.23117 2.49858 9.2309 2.49829 9.23061 2.49798C9.23048 2.49785 9.23018 2.49752 9.22993 2.49726C9.22945 2.49674 9.2289 2.49615 9.22827 2.49548C9.22702 2.49415 9.22548 2.49252 9.22367 2.4906C9.22004 2.48676 9.21529 2.48175 9.20943 2.47563C9.19773 2.4634 9.18163 2.44672 9.16132 2.42605C9.12074 2.38474 9.06323 2.32735 8.99046 2.2576C8.84523 2.11839 8.63741 1.92822 8.38031 1.71744C7.87373 1.30212 7.14102 0.777859 6.29319 0.419606C5.44984 0.0632458 4.39591 -0.168421 3.31647 0.152114C2.20864 0.481081 1.27361 1.33089 0.571728 2.73319L2.36021 3.62836ZM9.20259 14.3657C9.199 14.3692 9.20749 14.3606 9.23592 14.3375C9.26277 14.3158 9.29928 14.2876 9.34739 14.2521C9.44444 14.1806 9.5702 14.0928 9.72704 13.9856C10.0296 13.7789 10.4521 13.4973 10.9042 13.1832C11.8196 12.5473 12.9587 11.7087 13.9966 10.7203C15.0261 9.73972 16.0145 8.55743 16.561 7.21901C17.1227 5.84366 17.2138 4.30263 16.4283 2.73319L14.6398 3.62836C15.1282 4.60415 15.0885 5.53483 14.7095 6.46287C14.3154 7.42783 13.5532 8.38061 12.6173 9.27201C11.6896 10.1555 10.6482 10.9258 9.76306 11.5407C9.31477 11.8521 8.93203 12.1065 8.59856 12.3344C8.3086 12.5326 7.98747 12.7548 7.79741 12.9425L9.20259 14.3657ZM16.4283 2.73319C15.7264 1.33089 14.7914 0.481081 13.6835 0.152114C12.6041 -0.168421 11.5502 0.0632458 10.7068 0.419606C9.85898 0.777859 9.12627 1.30212 8.61969 1.71744C8.36259 1.92822 8.15477 2.11839 8.00954 2.2576C7.93677 2.32735 7.87926 2.38474 7.83868 2.42605C7.81837 2.44672 7.80227 2.4634 7.79057 2.47563C7.78471 2.48175 7.77996 2.48676 7.77633 2.4906C7.77452 2.49252 7.77298 2.49415 7.77173 2.49548C7.7711 2.49615 7.77055 2.49674 7.77007 2.49726C7.76982 2.49752 7.76952 2.49785 7.76939 2.49798C7.7691 2.49829 7.76883 2.49858 8.5 3.18078C9.23117 3.86297 9.23093 3.86323 9.23071 3.86346C9.23066 3.86352 9.23045 3.86374 9.23035 3.86385C9.23015 3.86407 9.23001 3.86421 9.22994 3.86429C9.2298 3.86443 9.22993 3.8643 9.23032 3.86388C9.23111 3.86304 9.23296 3.86109 9.23585 3.85807C9.24162 3.85204 9.25152 3.84176 9.26535 3.82769C9.29303 3.79952 9.33628 3.75628 9.39348 3.70145C9.50821 3.59148 9.67724 3.43665 9.88771 3.26409C10.3163 2.91273 10.8816 2.51698 11.4853 2.26189C12.0934 2.0049 12.6445 1.9299 13.1142 2.06937C13.5555 2.20041 14.1137 2.57729 14.6398 3.62836L16.4283 2.73319Z" fill="white"/>
</svg>
