<svg width="130" height="42" viewBox="0 0 130 42" fill="none" xmlns="http://www.w3.org/2000/svg">
<path fill-rule="evenodd" clip-rule="evenodd" d="M69.3262 15.8523C69.8246 15.8599 70.3251 15.8752 70.834 15.91C70.3265 15.8766 69.8239 15.8586 69.3262 15.8523Z" fill="white"/>
<path fill-rule="evenodd" clip-rule="evenodd" d="M71.4161 15.9615C71.8013 15.9949 72.1843 16.0241 72.5743 16.0728C72.185 16.0255 71.8006 15.9942 71.4161 15.9615Z" fill="white"/>
<path fill-rule="evenodd" clip-rule="evenodd" d="M18.5567 -0.00012207C18.5567 -0.00012207 19.7551 1.38048 18.4851 4.45937C17.215 7.53757 13.8469 12.6005 16.1201 14.3043C16.1201 14.3043 16.2911 12.4051 18.549 9.24907C20.8062 6.09301 24.565 0.0965061 18.5567 -0.00012207Z" fill="white"/>
<path fill-rule="evenodd" clip-rule="evenodd" d="M25.3837 19.3498C24.9645 19.3505 24.5718 19.233 24.2784 18.9015C23.6305 18.1715 23.6945 16.7304 24.1616 15.8434C24.3319 15.5188 24.6976 14.9967 25.285 15.0057C25.3198 15.0064 25.3552 15.0085 25.392 15.0134C25.9197 15.078 26.0886 15.3179 26.1769 15.5195C26.4883 16.2327 26.1567 17.6863 25.3837 19.3498ZM29.6778 17.7982C28.5488 18.5886 27.0618 18.9758 26.7448 19.0523C27.3476 17.5688 27.6555 16.0888 27.2085 15.0683C27.0055 14.6018 26.5481 14.02 25.529 13.8956C24.5613 13.776 23.7014 14.2953 23.164 15.3193C22.5113 16.5615 22.4341 18.5205 23.4352 19.6488C23.691 19.9373 24.138 20.2987 24.8359 20.428C24.4529 21.1239 24.0059 21.8358 23.5068 22.5288C22.0476 24.5552 20.7296 24.8131 20.0949 24.7965C19.5339 24.2007 19.8523 22.0367 20.2054 20.0742C20.6183 17.7801 23.2544 14.419 23.2544 14.419C18.6343 14.3446 17.0285 19.0843 16.9798 22.1354C16.9423 24.4663 18.2805 25.4471 19.3239 25.7878L19.3177 25.8038C19.3413 25.8121 19.4908 25.8615 19.7278 25.8934C19.8891 25.9247 20.0365 25.94 20.1581 25.9421C20.2617 25.9442 20.3437 25.931 20.4112 25.9101C21.3879 25.8337 22.8936 25.3081 24.4209 23.1872C24.9492 22.4531 25.5777 21.4638 26.122 20.4009C26.3827 20.3495 26.6635 20.2709 26.9652 20.1583C27.2641 20.0888 28.9735 19.6668 30.3236 18.7214L29.6778 17.7982Z" fill="white"/>
<path fill-rule="evenodd" clip-rule="evenodd" d="M35.428 19.5162C35.0213 19.5203 34.6167 19.3994 34.3227 19.0671C33.6755 18.3379 33.7394 16.8961 34.2059 16.0091C34.3769 15.6844 34.7426 15.1623 35.3293 15.1721C35.364 15.1728 35.3995 15.1749 35.4363 15.1797C35.964 15.2444 36.1336 15.4842 36.2219 15.6858C36.5333 16.399 36.2017 17.8526 35.428 19.5162ZM39.722 17.9646C38.5938 18.7543 37.1068 19.1422 36.7891 19.2186C37.3918 17.7345 37.7005 16.2552 37.2535 15.2346C37.0498 14.7682 36.5931 14.1863 35.574 14.0619C34.6049 13.9389 33.7464 14.4616 33.209 15.4849C32.5556 16.7272 32.4791 18.6861 33.4801 19.8151C33.736 20.1036 34.1823 20.4651 34.8802 20.5944C34.4979 21.2902 34.0502 22.0021 33.551 22.6952C32.0933 24.7216 30.7745 24.9795 30.1399 24.9635C29.5782 24.3677 29.8972 22.203 30.2504 20.2405C30.6633 17.9465 33.2987 14.5854 33.2987 14.5854C28.6786 14.511 27.0735 19.2506 27.0248 22.301C26.9873 24.6319 28.3248 25.6128 29.3682 25.9534L29.3627 25.9694C29.3856 25.9784 29.5344 26.0264 29.7686 26.0591C29.932 26.0904 30.0808 26.1064 30.2031 26.1084C30.3074 26.1098 30.3894 26.0973 30.4569 26.0765C31.4336 25.9993 32.9393 25.4738 34.4659 23.3535C34.9935 22.6194 35.6226 21.6302 36.167 20.5673C36.427 20.5158 36.7078 20.4366 37.0095 20.3247C37.3091 20.2551 39.0178 19.8332 40.3678 18.8877L39.722 17.9646Z" fill="white"/>
<mask id="mask0_473_44" style="mask-type:luminance" maskUnits="userSpaceOnUse" x="0" y="2" width="19" height="29">
<path fill-rule="evenodd" clip-rule="evenodd" d="M0 2.26636V30.3823H18.8022V2.26636L0 2.26636L0 2.26636Z" fill="white"/>
</mask>
<g mask="url(#mask0_473_44)">
<path fill-rule="evenodd" clip-rule="evenodd" d="M18.691 23.7619C18.5346 23.4261 18.4247 23.089 18.351 22.7539C16.8627 24.334 14.9176 26.3632 13.5328 27.6784C12.9545 28.2283 12.431 28.587 11.9701 28.822C10.1801 24.7831 16.6833 17.2009 16.6833 17.2009C12.6875 17.1362 10.3935 20.0108 9.15539 22.7414C7.6719 23.7667 5.9604 24.642 4.88011 24.1943C2.64167 23.2662 4.11473 13.4303 7.57041 8.74349C11.0261 4.05737 13.0991 3.62151 14.3643 3.78278C15.6295 3.94406 17.8241 4.65105 16.8328 7.9378L18.1335 5.86203C18.1335 5.86203 17.7942 2.33545 13.5433 2.26732C9.29233 2.1985 3.53288 5.81476 0.868998 13.8008C-1.79488 21.7862 2.34831 25.6562 4.15227 25.6847C5.04486 25.6993 6.74524 25.5978 8.35942 24.8992C8.02504 26.0462 7.8874 26.9722 7.88184 27.3413C7.85959 28.7024 8.74524 30.3597 10.1328 30.3819C10.333 30.3854 10.5179 30.3653 10.6945 30.3347C11.5829 30.2832 12.8419 29.8898 14.3094 28.4953C15.5968 27.2718 17.3611 25.4414 18.8022 23.9176C18.7584 23.8766 18.7202 23.8251 18.691 23.7619Z" fill="white"/>
</g>
<path fill-rule="evenodd" clip-rule="evenodd" d="M60.4784 30.3134C59.8041 30.321 59.1319 30.2299 58.5181 30.0353L58.4458 30.0117C58.3575 29.9839 58.2699 29.9561 58.192 29.9276C57.7805 29.7663 57.3947 29.5584 57.0464 29.3082C56.6599 29.0301 56.3095 28.7479 56.0043 28.474C55.1736 27.4625 54.9546 26.1097 55.353 24.4531C55.9286 22.0617 58.0099 19.4166 60.3832 18.036C61.6727 17.4931 63.0707 17.0802 64.5396 16.8063C65.8597 18.8431 66.1809 21.5946 66.1593 22.9265C66.1218 25.2651 64.6411 30.3718 60.4784 30.3134ZM75.1416 15.9165C72.3025 15.3485 69.5504 15.1546 66.9685 15.3395C66.16 14.7382 65.3564 14.2084 64.6446 13.7392C62.4847 12.3148 60.924 11.2853 60.9512 9.60296C60.9901 7.16432 63.3439 4.81674 65.1069 4.84524C65.9855 4.87513 66.7301 5.24218 67.2014 5.87826C67.2883 5.99574 67.3606 6.12435 67.4266 6.25713C67.9084 7.0093 67.9967 7.94708 67.7992 8.87929C66.6056 11.4 65.6394 13.9978 67.1437 15.1247C67.1437 15.1247 67.3154 13.2262 69.5726 10.0701C71.8305 6.91336 75.5886 0.917551 69.5803 0.820923C69.5803 0.820923 70.7787 2.20152 69.5087 5.27972C69.3258 5.72393 69.0978 6.20986 68.851 6.7208C68.851 6.71802 69.0109 3.15877 64.3311 3.08369C63.7443 3.07465 63.1958 3.13722 62.6842 3.25887C61.6964 3.43753 60.7357 3.81362 59.9105 4.35793C59.6832 4.54702 59.4732 4.73749 59.2953 4.9231C57.7583 6.53241 57.1396 8.58454 57.216 9.81082C57.3669 12.246 59.3001 13.5494 62.3707 14.8633C62.8524 15.0691 63.3029 15.3791 63.7172 15.7872C63.5796 15.815 63.444 15.8435 63.3112 15.8741C56.9512 17.3409 53.7708 21.0211 53.2967 22.4747C52.6154 24.5595 52.3519 27.3242 56.3895 30.2237C56.4201 30.2459 56.4534 30.2626 56.4847 30.2842C57.4607 30.7569 58.4353 31.0398 59.4746 31.2268C61.1382 31.336 62.7433 31.1656 64.3123 30.5991C64.3248 30.5935 64.3408 30.5873 64.3526 30.5817C67.4002 29.5848 69.2375 28.2988 69.8138 26.7583C71.0172 23.5445 70.9511 19.2053 68.2386 16.4205C70.3853 16.3593 72.6223 16.5616 74.9212 17.0204L75.1972 17.076L75.4176 15.9714L75.1416 15.9165Z" fill="white"/>
<path fill-rule="evenodd" clip-rule="evenodd" d="M86.0903 21.9384C84.1382 26.1559 81.9756 25.9182 81.4452 25.7833C80.757 25.3315 81.0899 23.0458 81.4612 20.9825C81.8741 18.6885 84.5102 15.3266 84.5102 15.3266C79.8894 15.2523 78.2843 19.9919 78.2356 23.043C78.2272 23.5296 78.2801 23.9564 78.3767 24.3318C76.9461 25.9578 75.6628 25.807 75.2714 25.7076C74.5825 25.2564 74.9162 22.97 75.2867 20.9067C75.6996 18.6127 78.3364 15.2509 78.3364 15.2509C73.7156 15.1765 72.1105 19.9161 72.0611 22.9672C72.0201 25.5442 73.6586 26.4709 74.7222 26.7065L74.7201 26.7121C74.766 26.7315 75.14 26.8803 75.7149 26.89C76.5018 26.9026 77.6656 26.6481 78.8786 25.4434C79.4438 26.2602 80.269 26.6433 80.8967 26.7816L80.8939 26.7879C80.9398 26.8066 81.3138 26.9561 81.8894 26.9651C83.124 26.9853 85.2853 26.3589 87.1129 22.4118L86.0903 21.9384Z" fill="white"/>
<path fill-rule="evenodd" clip-rule="evenodd" d="M108.132 23.6478C106.391 26.4869 104.656 26.2916 104.189 26.1727C103.501 25.7215 103.834 23.4358 104.206 21.3719C104.618 19.0778 107.254 15.7167 107.254 15.7167C102.633 15.6423 101.029 20.3819 100.979 23.4323C100.938 26.0093 102.576 26.936 103.641 27.1716L103.638 27.1772C103.684 27.1967 104.058 27.3454 104.633 27.3552C105.57 27.3698 107.039 27.0097 108.492 25.1146C108.204 24.7045 108.102 24.181 108.132 23.6478Z" fill="white"/>
<path fill-rule="evenodd" clip-rule="evenodd" d="M119.504 22.4958C118.796 23.5532 117.723 24.8357 116.754 25.606C116.27 26.0217 115.996 25.8583 115.979 24.8072C115.962 23.7527 117.764 18.6501 117.679 17.3488C117.594 16.0474 116.121 15.9758 116.121 15.9758L116.122 15.9772C115.565 15.9334 114.838 16.2615 113.915 16.9762C113.009 17.6776 111.169 20.5007 109.757 22.7906C110.669 19.2014 112.223 15.85 112.223 15.85C108.562 15.7909 107.169 19.1493 107.178 23.0227C107.185 26.8962 109.114 27.3738 109.114 27.3738C109.105 26.9171 109.128 26.4374 109.176 25.9445C110.366 23.9146 111.981 21.2932 113.204 19.5678C113.697 18.9025 114.047 18.582 114.536 18.2824C115.235 17.8542 115.013 19.2389 114.494 20.8823C113.976 22.5257 113.919 24.9782 113.919 24.9782L113.922 24.972C113.849 25.7318 113.903 26.3498 114.145 26.7718C114.327 27.0909 114.607 27.2994 114.955 27.3738C115.069 27.3988 115.185 27.412 115.301 27.4134C117.433 27.4475 119.938 23.8743 120.441 23.1221L119.504 22.4958Z" fill="white"/>
<path fill-rule="evenodd" clip-rule="evenodd" d="M48.0666 9.41222C49.6578 5.83211 51.3234 4.15885 51.7628 4.0365C52.4531 5.18005 49.4298 13.7688 45.8351 19.3865C45.8837 14.8609 47.3575 11.0062 48.0666 9.41222ZM52.2911 3.03337C52.1979 2.98332 52.0971 2.94648 51.9887 2.92701C51.9512 2.91658 51.9241 2.91033 51.9241 2.91033C50.6248 2.75391 48.9613 5.35175 48.3043 6.47306C46.052 10.3152 44.3433 15.6305 44.7166 21.0076C41.6154 25.196 40.2598 25.0389 40.1528 25.0194C40.1041 24.9972 40.0541 24.9902 40.0033 24.9826C39.5772 24.3972 39.7586 22.7351 40.0388 21.0604C41.6224 15.5415 44.8215 15.2947 44.8215 15.2947C43.9623 14.4487 42.6554 14.5794 41.7267 14.8276C41.6133 14.8554 41.5056 14.8901 41.3971 14.9242C41.3061 14.9541 41.2213 14.9826 41.1434 15.0111C41.0398 15.05 40.9356 15.0869 40.8368 15.1314C40.7027 15.1877 40.6213 15.2273 40.6213 15.2273L40.6199 15.2412C37.9783 16.5822 36.9801 19.992 36.9418 22.3785C36.8925 25.4303 39.2018 26.1713 40.1201 26.1859C40.2098 26.1873 40.2807 26.1769 40.3433 26.1609C40.9133 26.1289 41.801 25.7945 43.0669 24.6211L43.0558 24.6364C43.5598 24.2339 44.2098 23.6312 44.9397 22.8866C45.3832 25.5964 46.3961 28.2797 48.1868 30.7566C48.2953 30.9061 48.4635 30.9874 48.6352 30.9902C48.752 30.9916 48.8709 30.9575 48.9738 30.8831C49.2254 30.701 49.2824 30.3493 49.1003 30.0969C47.1566 27.4087 46.2577 24.5439 45.9588 21.8105C49.2205 18.2568 53.411 12.6614 54.2035 8.78935C55.0509 4.64477 53.1274 3.38095 52.2911 3.03337Z" fill="white"/>
<path fill-rule="evenodd" clip-rule="evenodd" d="M97.0456 19.6689C97.1951 15.3693 98.584 11.7468 99.2653 10.2147C100.898 6.5421 102.608 4.87648 102.972 4.82226C102.973 4.82295 103.093 4.94252 103.116 5.45625C103.234 8.13334 100.594 15.2637 97.0991 19.6112C97.081 19.6321 97.0637 19.6488 97.0456 19.6689ZM103.176 3.7093L103.179 3.72181C103.16 3.71903 103.14 3.71486 103.123 3.71277C101.818 3.56609 100.161 6.1542 99.503 7.2755C97.4036 10.8556 95.7811 15.7155 95.8715 20.7124C94.6904 21.5083 93.6685 21.4499 92.7251 21.3923C91.9118 21.037 94.2691 17.9206 94.29 16.6533C94.3059 15.6432 93.2159 15.45 92.771 15.4124C92.7105 15.4055 92.6508 15.4034 92.5896 15.4034H92.5847C92.176 15.4076 91.7769 15.5584 91.592 15.6307C90.2524 16.1556 88.9288 18.0561 87.8583 20.0429C88.7001 17.4819 89.6254 15.4861 89.6254 15.4861C85.9639 15.4277 84.5722 18.7854 84.5799 22.6595C84.5882 26.533 86.5173 27.0099 86.5173 27.0099C86.5076 26.5865 86.527 26.143 86.568 25.6884L86.5778 25.6919C87.3167 23.6488 89.5135 18.4851 91.4683 17.003C92.3101 16.7861 91.9952 16.6978 91.047 19.0308C90.0911 21.3811 91.6761 22.257 91.6761 22.257L91.6775 22.2563C91.8638 22.3849 92.1113 22.4844 92.4464 22.5038L92.6549 22.5163C93.5732 22.5747 94.6779 22.638 95.9299 21.9887C96.1857 25.2678 97.2208 28.5643 99.3862 31.5591C99.494 31.7085 99.6622 31.7892 99.8339 31.7919C99.9514 31.794 100.07 31.7593 100.172 31.6856C100.425 31.5028 100.481 31.151 100.299 30.8987C98.0626 27.8052 97.1985 24.4767 97.0546 21.3853C97.1582 21.2755 97.2604 21.1573 97.3633 21.0405L97.3264 21.0996C98.4359 20.4871 99.4641 19.6835 100.274 18.7214C100.701 18.2146 101.087 17.6682 101.539 17.183C101.605 17.1121 101.673 17.0426 101.742 16.9738C103.532 14.4093 105.016 11.7336 105.454 9.58832C106.525 4.35928 103.176 3.7093 103.176 3.7093Z" fill="white"/>
<path fill-rule="evenodd" clip-rule="evenodd" d="M125.5 23.5444C125.402 23.4714 125.333 23.3748 125.287 23.2712C125.109 23.5437 124.924 23.8155 124.73 24.0845C123.273 26.1088 121.955 26.3695 121.319 26.3535C120.757 25.7585 121.076 23.593 121.429 21.6299C121.841 19.3358 124.478 15.974 124.478 15.974C119.857 15.8996 118.252 20.64 118.203 23.6904C118.167 25.9726 119.449 26.9618 120.482 27.3226C120.503 27.333 120.518 27.3504 120.541 27.3588C120.564 27.3678 120.713 27.4158 120.947 27.4477C121.111 27.4797 121.259 27.4957 121.382 27.4978C121.486 27.4992 121.568 27.4867 121.636 27.4651C122.613 27.3886 124.119 26.8624 125.645 24.7428C125.732 24.6205 125.823 24.4898 125.916 24.3542C125.87 24.0386 125.756 23.7355 125.5 23.5444Z" fill="white"/>
<path fill-rule="evenodd" clip-rule="evenodd" d="M110.001 3.75916C110.001 3.75916 110.734 5.04035 109.247 7.27948C107.759 9.51931 104.299 13.0021 105.833 14.7073C105.833 14.7073 106.266 13.2301 108.548 11.0834C110.83 8.93676 114.745 4.77549 110.001 3.75916Z" fill="white"/>
<path fill-rule="evenodd" clip-rule="evenodd" d="M89.7294 27.7743C89.7294 27.7743 90.1166 26.3499 92.752 25.8188C95.3873 25.287 100.297 25.2703 100.418 22.9805C100.418 22.9805 99.0675 23.7187 95.9358 23.6228C92.8048 23.5276 87.094 23.7021 89.7294 27.7743Z" fill="white"/>
<path fill-rule="evenodd" clip-rule="evenodd" d="M115.884 40.1128C114.47 40.0753 114.356 39.5031 114.318 39.3148C113.936 37.3891 117.856 32.7315 122.538 29.6902C121.264 34.5403 119.446 39.3801 115.884 40.1128ZM128.16 16.0913C128.134 16.0934 128.107 16.0962 128.081 16.099C128.051 16.1017 128.024 16.1031 127.993 16.1066V16.1087C127.382 16.1859 126.796 16.4598 126.456 17.1348C125.515 19.0082 124.675 20.7128 123.34 26.4138C123.208 26.9762 123.072 27.5525 122.931 28.1344C117.905 31.1382 112.641 36.6564 113.214 39.5337C113.362 40.2845 113.941 41.1889 115.854 41.2397H115.895C120.15 41.3085 123.232 34.37 125.266 28.1851L125.688 26.8608C125.693 26.8469 125.697 26.8337 125.701 26.8205C125.703 26.783 125.695 26.7482 125.705 26.7072C125.997 25.4761 126.316 24.3443 126.7 23.1445C126.992 22.2324 127.128 21.3211 127.551 20.4792C127.59 20.3499 127.626 20.2192 127.67 20.0934C127.661 20.1052 127.652 20.1163 127.643 20.1288C128.586 17.164 129.628 16.6391 129.715 16.6009L129.976 16.5307C129.976 16.5307 129.736 15.9474 128.16 16.0913Z" fill="white"/>
<path fill-rule="evenodd" clip-rule="evenodd" d="M122.859 16.1671C122.859 16.1671 125.578 15.3287 126.221 16.7579C126.221 16.7579 122.741 16.425 121.429 21.6297L120.729 19.1076L122.859 16.1671Z" fill="white"/>
</svg>
