<svg width="130" height="43" viewBox="0 0 130 43" fill="none" xmlns="http://www.w3.org/2000/svg">
<path fill-rule="evenodd" clip-rule="evenodd" d="M69.3262 16.8197C69.8246 16.8273 70.3251 16.8426 70.834 16.8774C70.3265 16.844 69.8239 16.826 69.3262 16.8197Z" fill="#1D1D1B"/>
<path fill-rule="evenodd" clip-rule="evenodd" d="M71.4161 16.9289C71.8013 16.9623 72.1843 16.9915 72.5743 17.0401C72.185 16.9928 71.8006 16.9616 71.4161 16.9289Z" fill="#1D1D1B"/>
<path fill-rule="evenodd" clip-rule="evenodd" d="M18.5567 0.980984C18.5567 0.980984 19.7551 2.3604 18.4851 5.43664C17.215 8.51218 13.8469 13.5707 16.1201 15.2731C16.1201 15.2731 16.2911 13.3755 18.549 10.2222C20.8062 7.06887 24.565 1.07753 18.5567 0.980984Z" fill="#1D1D1B"/>
<path fill-rule="evenodd" clip-rule="evenodd" d="M25.3837 20.3152C24.9645 20.3159 24.5717 20.1986 24.2784 19.8672C23.6305 19.138 23.6945 17.6981 24.1616 16.8118C24.3319 16.4875 24.6976 15.9659 25.285 15.9749C25.3197 15.9756 25.3552 15.9777 25.392 15.9825C25.9197 16.0471 26.0886 16.2868 26.1769 16.4882C26.4883 17.2008 26.1567 18.6531 25.3837 20.3152ZM29.6778 18.764C28.5488 19.5537 27.0618 19.9406 26.7448 20.017C27.3476 18.5348 27.6555 17.0561 27.2085 16.0364C27.0055 15.5704 26.5481 14.989 25.529 14.8647C24.5613 14.7452 23.7014 15.2641 23.164 16.2872C22.5113 17.5284 22.4341 19.4857 23.4352 20.6129C23.691 20.9012 24.138 21.2624 24.8359 21.3916C24.4529 22.0868 24.0059 22.7981 23.5068 23.4905C22.0476 25.5152 20.7296 25.7729 20.0949 25.7562C19.5339 25.161 19.8523 22.9988 20.2054 21.038C20.6183 18.7459 23.2544 15.3877 23.2544 15.3877C18.6343 15.3134 17.0285 20.049 16.9798 23.0974C16.9423 25.4263 18.2805 26.4063 19.3239 26.7467L19.3177 26.7626C19.3413 26.771 19.4908 26.8203 19.7278 26.8522C19.8891 26.8835 20.0365 26.8988 20.1581 26.9009C20.2617 26.9029 20.3438 26.8898 20.4112 26.8689C21.3879 26.7925 22.8936 26.2674 24.4209 24.1483C24.9492 23.4148 25.5777 22.4265 26.122 21.3645C26.3827 21.3131 26.6635 21.2346 26.9652 21.1221C27.2641 21.0526 28.9736 20.631 30.3236 19.6864L29.6778 18.764Z" fill="#1D1D1B"/>
<path fill-rule="evenodd" clip-rule="evenodd" d="M35.428 20.4814C35.0213 20.4856 34.6167 20.3647 34.3227 20.0327C33.6755 19.3041 33.7394 17.8636 34.2059 16.9773C34.3769 16.6529 34.7426 16.1313 35.3293 16.141C35.364 16.1417 35.3995 16.1438 35.4363 16.1487C35.964 16.2133 36.1336 16.4529 36.2219 16.6543C36.5333 17.3669 36.2017 18.8193 35.428 20.4814ZM39.722 18.9301C38.5938 19.7192 37.1068 20.1067 36.7891 20.1831C37.3918 18.7002 37.7005 17.2222 37.2535 16.2026C37.0498 15.7365 36.5931 15.1552 35.574 15.0308C34.6049 14.9079 33.7464 15.4302 33.209 16.4526C32.5556 17.6938 32.4791 19.6511 33.4801 20.7791C33.736 21.0673 34.1823 21.4285 34.8802 21.5577C34.4979 22.253 34.0502 22.9642 33.5511 23.6567C32.0933 25.6813 30.7746 25.939 30.1399 25.9231C29.5782 25.3278 29.8973 23.1649 30.2504 21.2042C30.6633 18.9121 33.2987 15.5538 33.2987 15.5538C28.6786 15.4795 27.0735 20.2151 27.0248 23.2629C26.9873 25.5917 28.3248 26.5718 29.3682 26.9121L29.3627 26.9281C29.3856 26.9371 29.5344 26.985 29.7686 27.0177C29.932 27.0489 30.0808 27.0649 30.2031 27.067C30.3074 27.0684 30.3894 27.0559 30.4569 27.0351C31.4336 26.958 32.9393 26.4329 34.4659 24.3144C34.9935 23.581 35.6226 22.5926 36.167 21.5306C36.427 21.4792 36.7078 21.4 37.0095 21.2882C37.3091 21.2187 39.0178 20.7971 40.3679 19.8525L39.722 18.9301Z" fill="#1D1D1B"/>
<mask id="mask0_405_317" style="mask-type:luminance" maskUnits="userSpaceOnUse" x="0" y="3" width="19" height="29">
<path fill-rule="evenodd" clip-rule="evenodd" d="M0 3.24542V31.3372H18.8022V3.24542L0 3.24542L0 3.24542Z" fill="white"/>
</mask>
<g mask="url(#mask0_405_317)">
<path fill-rule="evenodd" clip-rule="evenodd" d="M18.691 24.7224C18.5346 24.3869 18.4247 24.0501 18.3511 23.7153C16.8627 25.2941 14.9176 27.3215 13.5329 28.6356C12.9545 29.185 12.431 29.5434 11.9701 29.7782C10.1801 25.7427 16.6833 18.1671 16.6833 18.1671C12.6875 18.1025 10.3935 20.9745 9.15539 23.7028C7.6719 24.7273 5.9604 25.6017 4.88011 25.1544C2.64167 24.2272 4.11473 14.3998 7.57041 9.71698C11.0261 5.0349 13.0991 4.5994 14.3643 4.76054C15.6295 4.92168 17.8241 5.62806 16.8328 8.91197L18.1335 6.838C18.1335 6.838 17.7942 3.31445 13.5433 3.24638C9.29233 3.17762 3.53288 6.79076 0.868998 14.77C-1.79488 22.7485 2.34831 26.6151 4.15227 26.6436C5.04487 26.6582 6.74524 26.5568 8.35942 25.8587C8.02505 27.0048 7.8874 27.9299 7.88184 28.2988C7.8596 29.6587 8.74524 31.3146 10.1328 31.3368C10.333 31.3403 10.5179 31.3201 10.6945 31.2896C11.5829 31.2382 12.8419 30.845 14.3094 29.4517C15.5968 28.2293 17.3611 26.4005 18.8022 24.878C18.7584 24.837 18.7202 24.7856 18.691 24.7224Z" fill="#1D1D1B"/>
</g>
<path fill-rule="evenodd" clip-rule="evenodd" d="M60.4784 31.2683C59.8041 31.276 59.1319 31.185 58.5181 30.9905L58.4458 30.9669C58.3575 30.9391 58.2699 30.9113 58.192 30.8828C57.7805 30.7217 57.3947 30.514 57.0464 30.264C56.6599 29.9861 56.3095 29.7041 56.0044 29.4305C55.1736 28.4199 54.9546 27.0683 55.353 25.4131C55.9286 23.0238 58.0099 20.381 60.3832 19.0015C61.6727 18.4591 63.0707 18.0465 64.5396 17.7729C65.8597 19.8079 66.1809 22.557 66.1593 23.8878C66.1218 26.2244 64.6411 31.3267 60.4784 31.2683ZM75.1416 16.8845C72.3025 16.3171 69.5504 16.1233 66.9685 16.308C66.16 15.7072 65.3564 15.178 64.6446 14.7091C62.4847 13.286 60.924 12.2573 60.9512 10.5765C60.9901 8.13991 63.3439 5.79435 65.1069 5.82283C65.9856 5.85269 66.7301 6.21943 67.2014 6.85496C67.2883 6.97234 67.3606 7.10083 67.4266 7.2335C67.9084 7.98502 67.9967 8.92199 67.7992 9.85341C66.6056 12.3719 65.6394 14.9675 67.1437 16.0934C67.1437 16.0934 67.3154 14.1965 69.5726 11.0432C71.8305 7.88917 75.5886 1.89852 69.5803 1.80198C69.5803 1.80198 70.7787 3.18139 69.5087 6.25693C69.3258 6.70076 69.0978 7.18627 68.851 7.69677C68.851 7.69399 69.0109 4.13781 64.3311 4.06279C63.7443 4.05376 63.1958 4.11628 62.6842 4.23782C61.6964 4.41633 60.7357 4.79209 59.9105 5.33594C59.6832 5.52486 59.4732 5.71517 59.2953 5.90062C57.7583 7.50855 57.1396 9.55891 57.216 10.7841C57.3669 13.2172 59.3001 14.5195 62.3707 15.8322C62.8524 16.0378 63.3029 16.3476 63.7172 16.7553C63.5796 16.7831 63.444 16.8116 63.3112 16.8421C56.9512 18.3077 53.7708 21.9847 53.2967 23.4371C52.6154 25.5201 52.3519 28.2824 56.3895 31.1794C56.4201 31.2016 56.4534 31.2183 56.4847 31.2398C57.4607 31.7122 58.4353 31.9948 59.4746 32.1817C61.1382 32.2907 62.7433 32.1206 64.3123 31.5545C64.3248 31.5489 64.3408 31.5427 64.3526 31.5371C67.4002 30.5411 69.2375 29.2562 69.8138 27.717C71.0172 24.506 70.9511 20.1705 68.2386 17.3881C70.3853 17.327 72.6223 17.5291 74.9212 17.9875L75.1972 18.0431L75.4176 16.9394L75.1416 16.8845Z" fill="#1D1D1B"/>
<path fill-rule="evenodd" clip-rule="evenodd" d="M86.0903 22.9006C84.1382 27.1145 81.9756 26.877 81.4452 26.7422C80.757 26.2908 81.0899 24.007 81.4612 21.9455C81.8741 19.6535 84.5102 16.2945 84.5102 16.2945C79.8894 16.2202 78.2842 20.9558 78.2356 24.0042C78.2272 24.4904 78.2801 24.9169 78.3767 25.292C76.9461 26.9166 75.6628 26.7658 75.2714 26.6665C74.5825 26.2157 74.9162 23.9313 75.2867 21.8698C75.6996 19.5778 78.3364 16.2188 78.3364 16.2188C73.7156 16.1445 72.1105 20.8801 72.0611 23.9285C72.0201 26.5033 73.6586 27.4292 74.7222 27.6646L74.7201 27.6702C74.766 27.6896 75.14 27.8383 75.7149 27.848C76.5018 27.8605 77.6655 27.6063 78.8786 26.4026C79.4438 27.2187 80.2689 27.6014 80.8967 27.7396L80.8939 27.7459C80.9398 27.7646 81.3138 27.914 81.8894 27.923C83.124 27.9431 85.2853 27.3173 87.1129 23.3736L86.0903 22.9006Z" fill="#1D1D1B"/>
<path fill-rule="evenodd" clip-rule="evenodd" d="M108.132 24.6085C106.391 27.4451 104.656 27.25 104.189 27.1312C103.501 26.6804 103.834 24.3967 104.206 22.3345C104.618 20.0424 107.254 16.6842 107.254 16.6842C102.633 16.6099 101.029 21.3454 100.979 24.3932C100.938 26.968 102.576 27.8938 103.641 28.1293L103.638 28.1348C103.684 28.1543 104.058 28.3029 104.633 28.3126C105.57 28.3272 107.039 27.9674 108.492 26.0741C108.204 25.6643 108.102 25.1412 108.132 24.6085Z" fill="#1D1D1B"/>
<path fill-rule="evenodd" clip-rule="evenodd" d="M119.504 23.4575C118.796 24.5139 117.723 25.7954 116.754 26.565C116.27 26.9803 115.996 26.8171 115.979 25.7669C115.962 24.7133 117.764 19.6151 117.679 18.3149C117.594 17.0147 116.121 16.9431 116.121 16.9431L116.122 16.9445C115.565 16.9008 114.838 17.2286 113.915 17.9426C113.009 18.6434 111.169 21.4641 109.758 23.752C110.669 20.1659 112.223 16.8174 112.223 16.8174C108.562 16.7584 107.169 20.1138 107.178 23.984C107.185 27.8541 109.114 28.3313 109.114 28.3313C109.105 27.8749 109.128 27.3957 109.176 26.9032C110.366 24.8751 111.981 22.2559 113.204 20.532C113.697 19.8673 114.047 19.5471 114.536 19.2477C115.235 18.8198 115.013 20.2034 114.494 21.8454C113.976 23.4873 113.919 25.9378 113.919 25.9378L113.922 25.9315C113.849 26.6907 113.903 27.3082 114.145 27.7298C114.327 28.0486 114.607 28.2569 114.955 28.3313C115.069 28.3563 115.185 28.3695 115.301 28.3708C117.433 28.4049 119.938 24.8348 120.441 24.0833L119.504 23.4575Z" fill="#1D1D1B"/>
<path fill-rule="evenodd" clip-rule="evenodd" d="M48.0666 10.3861C49.6578 6.8091 51.3234 5.13728 51.7628 5.01504C52.4531 6.1576 49.4298 14.739 45.8351 20.3518C45.8837 15.8301 47.3575 11.9788 48.0666 10.3861ZM52.2911 4.0118C52.1979 3.96179 52.0971 3.92498 51.9887 3.90553C51.9512 3.89511 51.924 3.88886 51.924 3.88886C50.6248 3.73258 48.9612 6.32818 48.3043 7.44852C46.052 11.2874 44.3433 16.5981 44.7166 21.9705C41.6154 26.1553 40.2598 25.9983 40.1528 25.9789C40.1041 25.9567 40.0541 25.9497 40.0033 25.9421C39.5772 25.3573 39.7586 23.6965 40.0388 22.0233C41.6224 16.5092 44.8215 16.2626 44.8215 16.2626C43.9623 15.4173 42.6554 15.5479 41.7266 15.7958C41.6133 15.8236 41.5056 15.8583 41.3971 15.8924C41.3061 15.9222 41.2213 15.9507 41.1434 15.9792C41.0398 16.0181 40.9356 16.0549 40.8368 16.0994C40.7027 16.1556 40.6213 16.1952 40.6213 16.1952L40.6199 16.2091C37.9783 17.5489 36.9801 20.9558 36.9418 23.3402C36.8925 26.3894 39.2018 27.1298 40.1201 27.1444C40.2098 27.1458 40.2807 27.1354 40.3433 27.1194C40.9133 27.0874 41.801 26.7533 43.0669 25.5809L43.0558 25.5962C43.5598 25.194 44.2098 24.5918 44.9397 23.848C45.3832 26.5554 46.3961 29.2364 48.1868 31.7112C48.2953 31.8605 48.4635 31.9418 48.6352 31.9445C48.752 31.9459 48.8709 31.9119 48.9738 31.8376C49.2254 31.6556 49.2824 31.3041 49.1003 31.052C47.1566 28.3661 46.2577 25.5038 45.9588 22.7728C49.2205 19.2221 53.411 13.6316 54.2035 9.76282C55.0509 5.62181 53.1274 4.35908 52.2911 4.0118Z" fill="#1D1D1B"/>
<path fill-rule="evenodd" clip-rule="evenodd" d="M97.0456 20.634C97.1951 16.3381 98.584 12.7188 99.2653 11.1879C100.898 7.51852 102.608 5.85433 102.972 5.80016C102.973 5.80085 103.093 5.92032 103.116 6.4336C103.234 9.10839 100.594 16.2326 97.0991 20.5764C97.081 20.5972 97.0637 20.6139 97.0456 20.634ZM103.176 4.68719L103.179 4.6997C103.16 4.69692 103.14 4.69275 103.123 4.69067C101.818 4.54411 100.161 7.12999 99.503 8.25033C97.4036 11.8274 95.7811 16.6831 95.8715 21.6756C94.6904 22.4709 93.6685 22.4126 92.7251 22.3549C91.9118 22 94.2691 18.8862 94.29 17.62C94.3059 16.6108 93.2159 16.4178 92.771 16.3802C92.7105 16.3733 92.6507 16.3712 92.5896 16.3712H92.5847C92.1759 16.3754 91.7769 16.5261 91.592 16.5983C90.2524 17.1227 88.9288 19.0217 87.8583 21.0068C88.7001 18.448 89.6254 16.4539 89.6254 16.4539C85.9639 16.3955 84.5722 19.7503 84.5799 23.6211C84.5882 27.4912 86.5173 27.9677 86.5173 27.9677C86.5076 27.5447 86.527 27.1016 86.568 26.6473L86.5778 26.6508C87.3167 24.6095 89.5135 19.4502 91.4683 17.9694C92.3101 17.7527 91.9952 17.6645 91.047 19.9955C90.0911 22.3438 91.6761 23.219 91.6761 23.219L91.6775 23.2183C91.8638 23.3468 92.1113 23.4461 92.4464 23.4655L92.6549 23.478C93.5732 23.5364 94.6779 23.5996 95.9298 22.9509C96.1857 26.2271 97.2208 29.5208 99.3862 32.513C99.494 32.6623 99.6622 32.7429 99.8339 32.7457C99.9514 32.7477 100.07 32.713 100.172 32.6394C100.425 32.4567 100.481 32.1053 100.299 31.8531C98.0626 28.7623 97.1985 25.4367 97.0546 22.348C97.1582 22.2382 97.2604 22.1202 97.3633 22.0035L97.3264 22.0625C98.4359 21.4506 99.4641 20.6477 100.274 19.6864C100.701 19.18 101.087 18.6341 101.539 18.1493C101.605 18.0785 101.673 18.009 101.742 17.9402C103.532 15.378 105.016 12.7046 105.454 10.5612C106.525 5.33662 103.176 4.68719 103.176 4.68719Z" fill="#1D1D1B"/>
<path fill-rule="evenodd" clip-rule="evenodd" d="M125.5 24.5051C125.402 24.4322 125.333 24.3356 125.287 24.2321C125.109 24.5044 124.924 24.776 124.73 25.0448C123.273 27.0673 121.955 27.3278 121.319 27.3118C120.757 26.7173 121.076 24.5537 121.429 22.5923C121.841 20.3002 124.478 16.9412 124.478 16.9412C119.857 16.8669 118.252 21.6032 118.204 24.6509C118.167 26.9312 119.449 27.9196 120.482 28.2801C120.503 28.2905 120.518 28.3078 120.541 28.3162C120.564 28.3252 120.713 28.3731 120.947 28.4051C121.111 28.437 121.259 28.453 121.382 28.4551C121.486 28.4565 121.568 28.444 121.636 28.4225C122.613 28.346 124.119 27.8203 125.645 25.7025C125.732 25.5803 125.823 25.4497 125.916 25.3143C125.87 24.9989 125.756 24.6961 125.5 24.5051Z" fill="#1D1D1B"/>
<path fill-rule="evenodd" clip-rule="evenodd" d="M110.001 4.737C110.001 4.737 110.734 6.01708 109.247 8.25429C107.759 10.4922 104.299 13.972 105.833 15.6757C105.833 15.6757 106.266 14.1998 108.548 12.055C110.83 9.91014 114.745 5.75245 110.001 4.737Z" fill="#1D1D1B"/>
<path fill-rule="evenodd" clip-rule="evenodd" d="M89.7294 28.7315C89.7294 28.7315 90.1166 27.3083 92.752 26.7776C95.3874 26.2463 100.297 26.2296 100.418 23.9417C100.418 23.9417 99.0676 24.6794 95.9359 24.5835C92.8048 24.4884 87.094 24.6627 89.7294 28.7315Z" fill="#1D1D1B"/>
<path fill-rule="evenodd" clip-rule="evenodd" d="M115.884 41.0594C114.47 41.0218 114.356 40.4502 114.318 40.262C113.936 38.338 117.856 33.6844 122.538 30.6457C121.264 35.4917 119.446 40.3273 115.884 41.0594ZM128.16 17.0586C128.134 17.0606 128.107 17.0634 128.081 17.0662C128.051 17.069 128.024 17.0704 127.993 17.0738V17.0759C127.382 17.153 126.796 17.4267 126.456 18.1011C125.515 19.973 124.675 21.676 123.34 27.3722C123.208 27.9341 123.072 28.5099 122.931 29.0913C117.905 32.0925 112.641 37.606 113.214 40.4808C113.362 41.2309 113.941 42.1345 115.854 42.1852H115.895C120.15 42.254 123.232 35.3215 125.266 29.142L125.688 27.8188C125.693 27.8049 125.697 27.7917 125.701 27.7785C125.703 27.741 125.695 27.7063 125.705 27.6653C125.997 26.4352 126.316 25.3045 126.7 24.1056C126.992 23.1944 127.128 22.2838 127.551 21.4427C127.59 21.3135 127.626 21.1829 127.67 21.0572C127.661 21.069 127.652 21.0801 127.643 21.0926C128.586 18.1303 129.628 17.6059 129.715 17.5677L129.976 17.4975C129.976 17.4975 129.736 16.9148 128.16 17.0586Z" fill="#1D1D1B"/>
<path fill-rule="evenodd" clip-rule="evenodd" d="M122.859 17.1341C122.859 17.1341 125.578 16.2965 126.221 17.7245C126.221 17.7245 122.741 17.3918 121.429 22.592L120.729 20.0722L122.859 17.1341Z" fill="#1D1D1B"/>
</svg>
