<svg width="45" height="46" viewBox="0 0 45 46" fill="none" xmlns="http://www.w3.org/2000/svg">
<path fill-rule="evenodd" clip-rule="evenodd" d="M34.9884 8.93377L29.5397 7.45066L29.2808 8.36713L33.9405 11.1212L35.2994 10.1884L38.2358 15.0784L38.8045 14.0547L41.8953 17.4157L43.4907 11.248L34.9884 8.93377Z" fill="#00A0A8"/>
<path fill-rule="evenodd" clip-rule="evenodd" d="M1.8493 9.01322L1.84961 9.01353C2.00465 9.5506 2.16153 10.0827 2.32119 10.6075C2.44817 10.4772 2.5804 10.3581 2.71448 10.2435C2.74252 10.2195 2.77026 10.1951 2.79893 10.1717C2.92838 10.0652 3.05999 9.96449 3.19345 9.87118C3.2218 9.85147 3.25016 9.8333 3.27852 9.8139C3.39718 9.73352 3.51677 9.65777 3.63667 9.58694C3.66317 9.57154 3.68937 9.5546 3.71557 9.53951C3.84687 9.46468 3.97787 9.39601 4.10855 9.33134C4.15078 9.31039 4.19269 9.29038 4.23492 9.27036C4.36037 9.21123 4.48519 9.15488 4.60787 9.10437H4.60817L3.54944 8.68248L1.8493 9.01322Z" fill="#00A0A8"/>
<path fill-rule="evenodd" clip-rule="evenodd" d="M29.6174 6.21885L29.5891 8.14695C29.5891 8.14695 40.8671 11.8569 43.0946 13.2482L44.034 10.3454L29.6174 6.21885Z" fill="#00777C"/>
<path fill-rule="evenodd" clip-rule="evenodd" d="M3.74022 7.45066C2.74591 7.67793 2.00186 7.88149 1.54108 8.01668C1.63478 8.35728 1.73125 8.69141 1.82741 9.02523L3.52755 8.69449L4.58628 9.11608C5.0557 8.9233 5.50046 8.79088 5.87526 8.70219C5.28748 8.19499 4.40536 7.72443 3.8182 7.48269L3.74022 7.45066Z" fill="#00777C"/>
<path fill-rule="evenodd" clip-rule="evenodd" d="M33.9688 33.704C34.199 33.3465 34.4462 32.9828 34.6891 32.6139C34.9693 32.0716 35.2615 31.5357 35.5756 31.0168C35.9226 30.4428 36.2314 29.7945 36.6528 29.2664C36.6432 29.2393 36.6355 29.211 36.6253 29.1842C36.4333 29.0194 36.2484 28.8454 36.0397 28.6995C35.6298 28.7903 35.272 29.0838 34.8685 29.2014C34.8287 29.2128 34.7921 29.215 34.7575 29.2116C34.057 30.0751 33.5395 31.1677 33.0109 32.1359C32.7406 32.6314 32.4336 33.0844 31.9805 33.3628C31.9506 33.4019 31.9207 33.4413 31.8905 33.4804C31.8606 33.4774 31.8295 33.4801 31.7989 33.4792C31.586 33.6615 31.3351 33.7478 31.0851 33.9011C30.8931 34.0188 30.7143 34.1512 30.5414 34.2913C30.5294 34.335 30.5205 34.38 30.5137 34.4249C30.5383 34.4468 30.5627 34.4702 30.5818 34.5047C30.6434 34.6162 30.7115 34.7224 30.784 34.8253C31.1803 35.071 31.5166 35.3984 31.8846 35.6854C31.9198 35.6771 31.9558 35.67 31.9897 35.6601C32.068 35.7076 32.1509 35.739 32.2351 35.7599C32.6465 35.4298 32.9939 35.0279 33.4134 34.7126C33.402 34.6716 33.389 34.6307 33.3702 34.5894C33.5835 34.3076 33.7771 34.0018 33.9688 33.704Z" fill="#00777C"/>
<path fill-rule="evenodd" clip-rule="evenodd" d="M36.5573 18.6291C36.7259 18.5296 36.8658 18.3818 36.9792 18.2257C36.9416 17.6797 36.7228 17.15 36.062 16.9972L36.0616 16.9982C36.5129 17.7317 36.5573 18.6291 36.5573 18.6291Z" fill="#EEA52D"/>
<path fill-rule="evenodd" clip-rule="evenodd" d="M35.8197 20.4078C34.4013 21.218 32.3738 20.8836 32.3738 20.8836C34.4173 20.8097 35.1555 19.4609 35.1555 19.4609C35.1555 19.4609 33.1998 20.6951 30.8219 19.6795C30.8219 19.6795 31.8905 23.4658 35.8197 20.4078Z" fill="#EEA52D"/>
<path fill-rule="evenodd" clip-rule="evenodd" d="M31.9762 18.2207C31.9713 18.0198 31.9824 17.8159 32.0058 17.6131C31.7681 17.6912 31.4377 17.7646 31.1301 17.7193C31.5635 18.049 31.9762 18.2207 31.9762 18.2207Z" fill="#EEA52D"/>
<path fill-rule="evenodd" clip-rule="evenodd" d="M32.3245 24.2508C32.3245 24.2508 31.4923 23.5591 30.5273 23.4643L30.1574 23.6148C30.1537 23.6167 29.8889 23.7297 29.5891 23.9588C30.3195 23.8871 31.1406 23.8631 31.6464 24.0287L32.3245 24.2508Z" fill="#EEA52D"/>
<path fill-rule="evenodd" clip-rule="evenodd" d="M28.2672 23.6903C28.4598 23.4538 28.6713 23.2555 28.8741 23.0963C28.3079 22.5561 27.9522 21.8552 27.7404 21.3092L27.7398 21.3086C27.7398 21.3086 27.721 22.8052 28.2672 23.6903Z" fill="#EEA52D"/>
<path fill-rule="evenodd" clip-rule="evenodd" d="M37.7911 23.7519C37.6441 24.1716 37.2813 24.4205 36.9684 24.5637C36.9684 24.5637 37.7695 24.7758 38.0981 24.3453C38.0981 24.3453 40.3672 24.3062 41.2656 23.9019C40.1859 24.5834 36.1168 27.0809 33.1188 27.9715C33.1188 27.9715 33.3879 25.7293 34.3239 25.3317C34.3239 25.3317 32.7418 24.9738 31.562 26.1915C32.1781 25.9439 32.9425 25.7357 33.5679 25.8688C33.5679 25.8688 30.6475 26.9645 30.2129 28.325L30.1608 27.2952C30.1257 26.6017 30.375 25.7767 30.604 25.1793C29.9358 25.1885 29.0238 25.3067 28.395 25.4262L28.0905 25.4841C28.0248 25.8078 27.9752 26.1512 27.9672 26.48C27.9672 26.48 28.9831 25.8949 29.6421 26.0135C29.6421 26.0135 29.1819 27.6287 29.4544 29.239C29.4544 29.239 29.1834 28.7432 27.4315 28.5292C27.4315 28.5292 27.4321 28.5298 27.4321 28.5301C29.5653 30.0985 30.1617 32.7937 30.3103 33.7625C30.482 33.8586 30.7079 34 30.9646 34.1964C31.6529 33.446 33.6357 31.1034 33.869 28.7937L33.9069 28.4208L34.2555 28.2828C37.5725 26.9706 41.3707 25.1869 41.8938 24.5245C41.8969 24.014 41.8747 23.6697 41.8553 23.4643C40.2488 23.9012 37.7911 23.7519 37.7911 23.7519Z" fill="#EEA52D"/>
<path fill-rule="evenodd" clip-rule="evenodd" d="M42.9685 21.3985C42.4381 21.3181 41.7483 21.1294 41.3189 20.6927C41.3642 20.9945 41.519 21.3637 41.9733 21.5941C41.9733 21.5941 41.5227 22.7892 37.9109 23.197C37.919 23.3183 37.9146 23.3956 37.9146 23.3956C40.7749 23.4261 42.4387 22.456 42.4387 22.456C42.7337 22.234 43.106 21.8506 42.9214 21.4188L42.9685 21.3985Z" fill="#EEA52D"/>
<path fill-rule="evenodd" clip-rule="evenodd" d="M12.6937 29.3951C14.0209 28.2477 14.7551 26.5213 15.1324 25.312C14.3812 26.2075 12.9317 27.2395 10.1713 28.1639C11.3536 30.1552 12.563 31.9573 13.775 33.5858C13.2467 30.8173 15.214 28.8223 15.214 28.8223C14.2142 28.5861 12.6937 29.3951 12.6937 29.3951Z" fill="#EEA52D"/>
<path fill-rule="evenodd" clip-rule="evenodd" d="M13.504 25.1469C13.4356 25.368 13.3536 25.5996 13.2534 25.8349C13.9731 25.4204 14.7326 24.8405 15.1977 24.0802C14.7261 24.7703 13.982 25.041 13.504 25.1469Z" fill="#EEA52D"/>
<path fill-rule="evenodd" clip-rule="evenodd" d="M12.5467 24.0802C10.2834 24.8775 9.48915 26.2155 9.24658 26.7741C9.44199 27.1203 9.63802 27.4606 9.83497 27.7956L11.2457 26.5265C12.0042 25.8444 12.3722 24.8177 12.5467 24.0802Z" fill="#EEA52D"/>
<path fill-rule="evenodd" clip-rule="evenodd" d="M31.7577 39.2482C31.5496 39.5454 31.2432 40.4206 30.6709 40.4492C30.0988 40.4782 29.6026 39.4844 29.3976 39.845C29.3976 39.845 27.5674 31.4465 20.0342 37.1545C21.915 37.0106 26.5253 37.1323 28.5852 41.4344L28.7445 41.7673L27.5348 43.4136C27.838 43.5904 28.2406 43.7496 28.6135 43.7086C28.9772 43.668 29.2944 43.4444 29.5838 43.025L29.7567 42.7749L30.0603 42.7595C30.1232 42.7558 31.6609 42.6533 31.6902 41.5342L31.7019 41.0821L32.1377 40.958C32.134 40.9583 32.3553 40.8724 32.4992 40.5638C32.6022 40.3424 32.6777 39.9867 32.6034 39.4327C32.2397 39.2476 31.8591 39.1035 31.7577 39.2482Z" fill="#EEA52D"/>
<path fill-rule="evenodd" clip-rule="evenodd" d="M24.636 21.9245C24.1117 22.149 23.8879 22.3981 23.875 22.4132L22.9876 23.4264L22.7928 22.1022C22.7922 22.0979 22.7922 22.0939 22.7916 22.0899C22.2587 23.1009 21.5461 24.2104 20.6507 25.0955L22.0978 25.0225C22.341 24.7629 22.5971 24.438 22.7706 24.0765L23.2459 24.7848C23.2459 24.7848 23.584 23.7808 23.9844 23.5058C23.9844 23.5058 24.4513 25.8065 25.1159 26.3461C25.1159 26.3461 24.75 24.9221 24.709 23.6182C24.5931 23.0026 24.5937 22.4034 24.636 21.9245Z" fill="#EEA52D"/>
<path fill-rule="evenodd" clip-rule="evenodd" d="M19.6258 26.5438L17.2603 26.663L18.5341 27.5071C18.9098 27.1514 19.2822 26.825 19.6258 26.5438Z" fill="#EEA52D"/>
<path fill-rule="evenodd" clip-rule="evenodd" d="M22.639 18.9915C22.7552 18.2524 22.9552 17.5907 23.2123 16.9972C23.089 17.0031 22.949 17.0182 22.8002 17.0403C22.614 17.6187 22.1708 18.6762 21.2671 19.4633C21.3808 20.0601 21.4952 20.9594 21.3895 21.8373C22.1483 20.462 22.5749 19.1886 22.639 18.9915Z" fill="#EEA52D"/>
<path fill-rule="evenodd" clip-rule="evenodd" d="M21.3351 17.4114C21.202 17.4435 21.0722 17.4616 20.9458 17.4681C20.1469 17.5084 19.5015 17.077 19.1301 16.6893C19.1039 16.9569 19.0996 17.182 19.1363 17.3089C19.2667 17.7591 20.0141 18.5105 20.715 18.7541C20.9992 18.355 21.2624 17.8968 21.451 17.3837C21.4418 17.3859 21.431 17.3883 21.422 17.3905L21.3351 17.4114Z" fill="#EEA52D"/>
<path fill-rule="evenodd" clip-rule="evenodd" d="M21.0757 26.8517C20.2839 27.4319 18.9259 28.5144 17.8767 29.8109C18.4189 29.744 19.031 29.6997 19.5781 29.7357C19.7775 29.1057 20.2361 27.9065 21.0757 26.8517Z" fill="#EEA52D"/>
<path fill-rule="evenodd" clip-rule="evenodd" d="M25.8904 14.8973C25.9215 14.8693 28.5321 12.5242 30.0159 12.4494C30.0159 12.4494 29.7382 12.0176 29.2614 12.0416C29.2614 12.0416 30.24 10.6383 30.4345 9.59495C30.1053 9.46684 29.769 9.36121 29.4315 9.29839C29.0308 10.529 28.5096 11.7035 28.0581 12.6209C28.3697 12.494 28.5663 12.4358 28.5774 12.4327C28.5774 12.4327 27.1673 13.3166 25.8904 14.8973Z" fill="#EEA52D"/>
<path fill-rule="evenodd" clip-rule="evenodd" d="M16.9425 31.1551L16.6439 31.2228C17.0612 31.3389 17.7189 31.5271 18.2411 31.6977C18.5098 31.3762 18.7724 31.0935 19.0128 30.8551C18.2938 30.8986 17.4841 31.0322 16.9425 31.1551Z" fill="#EEA52D"/>
<path fill-rule="evenodd" clip-rule="evenodd" d="M19.0035 13.5289C19.6745 10.219 22.4137 9.16828 22.4476 9.15565L22.5764 9.12362C23.6795 8.97396 24.6218 9.22001 25.3775 9.85963C26.1231 10.49 26.5472 11.4016 26.7879 12.2146C26.9981 11.7945 27.2287 11.3086 27.4565 10.786C27.1368 9.99174 26.4199 8.51326 25.2058 7.54444C25.2058 7.54444 25.343 8.36544 25.2684 8.78303C25.2684 8.78303 22.4383 6.37883 20.0752 6.9119C20.0752 6.9119 20.9351 7.53705 21.2662 8.41194C21.2662 8.41194 16.731 6.95317 13.1116 9.10977C13.1116 9.10977 16.404 9.31055 17.8462 11.3628C17.8462 11.3628 14.2117 12.395 12.637 15.0708V15.0711C14.9828 14.0493 17.8718 13.6521 19.0035 13.5289Z" fill="#EEA52D"/>
<path fill-rule="evenodd" clip-rule="evenodd" d="M10.1124 14.2256C7.86607 15.2015 5.72888 17.1022 4.93152 17.857C5.33035 18.8536 5.73874 19.8184 6.15515 20.7527C6.35395 19.5169 7.12789 16.6859 10.1124 14.2256Z" fill="#EEA52D"/>
<path fill-rule="evenodd" clip-rule="evenodd" d="M9.22995 9.37968C9.22995 9.37968 8.42087 7.22462 5.72395 6.83475C6.46553 7.28683 7.28293 7.92368 7.60162 8.66985L7.94159 9.46499L7.07796 9.52596C7.05022 9.52812 4.20659 9.76801 2.77399 11.7977C3.21844 13.1804 3.68169 14.5108 4.16005 15.7937C4.08731 14.0187 4.63471 10.7827 9.22995 9.37968Z" fill="#EEA52D"/>
<path fill-rule="evenodd" clip-rule="evenodd" d="M18.3369 21.8948C15.9479 18.1309 12.9452 20.5111 12.9452 20.5111C16.3159 19.736 18.3369 21.8948 18.3369 21.8948Z" fill="#EEA52D"/>
<path fill-rule="evenodd" clip-rule="evenodd" d="M25.5828 19.828C25.5828 19.828 26.6878 17.0977 29.5554 16.4596C29.5554 16.4596 25.5267 15.5644 25.5828 19.828Z" fill="#EEA52D"/>
<path fill-rule="evenodd" clip-rule="evenodd" d="M27.7542 41.0059C27.81 40.4239 27.228 39.8988 26.6523 40.0374C26.5164 40.0704 26.3919 40.1215 26.2735 40.1818C23.7048 37.9402 19.9396 38.6319 19.7454 38.6698L18.9403 38.8262L19.0131 38.0101C19.0778 37.2905 19.1906 36.6123 19.3312 35.9841C18.9444 35.1345 18.728 33.9162 19.3534 32.3949C18.3732 33.5245 17.2328 35.2903 16.952 37.603C18.9293 39.8089 20.8532 41.5843 22.6106 42.9962C22.6233 43.165 22.6843 43.338 22.8113 43.5025C23.2052 44.0125 23.7541 44.2748 24.3887 44.334C24.8061 44.3731 25.1855 44.0956 25.3263 43.7138C25.33 43.7042 25.3344 43.695 25.3377 43.6851C25.6034 43.6879 25.8716 43.5755 26.0667 43.2906C26.2316 43.0501 26.3962 42.8096 26.5611 42.5691C26.6017 42.5097 26.7417 42.2885 26.856 42.1056C27.3822 41.9664 27.7033 41.5353 27.7542 41.0059Z" fill="#EEA52D"/>
<path fill-rule="evenodd" clip-rule="evenodd" d="M16.3788 28.6995C16.3642 28.714 16.3502 28.7292 16.3356 28.7438C16.3496 28.7286 16.3654 28.7153 16.3788 28.6995Z" fill="#58B893"/>
<path fill-rule="evenodd" clip-rule="evenodd" d="M12.6874 24.2649C12.7026 24.2041 12.7209 24.1391 12.7349 24.0802C12.7008 24.0923 12.6704 24.1057 12.637 24.1178C12.6534 24.167 12.6674 24.2175 12.6874 24.2649Z" fill="#58B893"/>
<path fill-rule="evenodd" clip-rule="evenodd" d="M15.4109 30.11C15.5818 30.0887 15.7582 30.0699 15.9351 30.0517C15.9163 29.9052 15.8737 29.7625 15.8208 29.6233C15.6828 29.7843 15.5441 29.9453 15.4109 30.11Z" fill="#58B893"/>
<path fill-rule="evenodd" clip-rule="evenodd" d="M12.9165 20.7549C12.9165 20.7549 15.9192 18.3747 18.3085 22.1385C18.3085 22.1385 16.2872 19.9801 12.9165 20.7549ZM18.5483 27.5668L17.272 26.7212L15.4023 26.8154L18.4102 25.4721C19.788 24.8568 20.8667 23.39 21.6191 22.0249C21.7236 21.1481 21.6092 20.2505 21.4955 19.6552C20.9305 20.1467 20.1859 20.5328 19.2088 20.6286C19.2088 20.6286 20.1631 19.9881 20.9527 18.8804C20.2528 18.6352 19.5075 17.886 19.3774 17.4361C19.3404 17.3092 19.3447 17.0831 19.3712 16.8149C19.3001 16.7413 19.2378 16.6689 19.1879 16.6018L19.0895 16.4694L19.0704 16.3059C19.0529 16.1553 19.0455 16.0133 19.0353 15.8689C19.0199 15.8624 19.0017 15.8553 18.9897 15.8495C19.0029 15.8279 19.0165 15.807 19.0285 15.7848C19.0106 15.4963 19.002 15.2151 19.0103 14.9493C18.0182 15.0707 16.1544 15.3552 14.4114 15.9323C15.1671 16.2535 16.0419 16.7345 16.7243 17.421L17.8792 18.5826C17.8792 18.5826 13.8064 17.3036 10.3281 19.5957C11.3523 18.0849 13.1375 17.5297 14.4965 17.3323C13.4849 16.8094 12.5026 16.5938 12.4881 16.5907L10.7393 16.2166L12.3469 15.4347C12.4896 15.3654 12.6385 15.3026 12.7861 15.2382V15.236C14.3608 12.5602 17.9954 11.528 17.9954 11.528C16.5532 9.47577 13.2605 9.27529 13.2605 9.27529C16.8802 7.11838 21.4154 8.57716 21.4154 8.57716C21.0843 7.70257 20.2241 7.07712 20.2241 7.07712C22.5872 6.54405 25.4176 8.94855 25.4176 8.94855C25.4919 8.53066 25.355 7.70996 25.355 7.70996C26.5682 8.67786 27.2848 10.1548 27.6047 10.9496C28.1583 9.67932 28.6933 8.18698 28.8659 6.85785C28.5395 7.13501 28.1515 7.3863 27.7144 7.53165L27.1803 7.70934L26.9547 7.19383C26.9414 7.16365 25.8161 4.65321 23.735 3.35888C23.9159 3.94492 24.0361 4.68062 23.9748 5.55367L23.879 6.91513L22.9201 5.94231C22.888 5.90966 20.0432 3.05955 16.7551 2.5234C16.7529 2.52617 16.7505 2.52864 16.7486 2.53141C17.1946 3.18674 17.6887 4.08719 17.9482 5.13947L18.3187 6.64228L17.0158 5.80465C16.9903 5.78833 14.5812 4.28767 10.6699 4.22731C11.0419 4.70464 11.4081 5.34765 11.6183 6.17789L11.8374 7.04355L10.9495 6.94038C10.9156 6.93669 8.15731 6.62689 5.8845 7.08143C5.88697 7.08297 5.88943 7.08451 5.89159 7.08605C8.58296 7.47869 9.3908 9.62974 9.3908 9.62974C4.80173 11.0306 4.24971 14.2598 4.3206 16.0364C4.39981 16.2495 4.4781 16.466 4.55854 16.676C5.56796 15.7556 7.50142 14.1459 9.61026 13.202C9.09399 13.0222 8.4119 12.8907 7.59019 12.9815L5.13923 13.2519C11.904 9.2602 14.5615 11.0399 14.5615 11.0399C12.7516 10.7981 10.9334 11.3626 9.6494 11.9274C10.7855 12.2412 11.4562 12.8051 11.4984 12.8411L12.3685 13.5873L11.2657 13.9008C10.9214 13.9987 10.5753 14.1268 10.2319 14.2758C7.24067 16.7367 6.46457 19.5708 6.26515 20.8091C6.27008 20.8205 6.27502 20.8325 6.28026 20.8439C6.72687 19.7081 7.59389 18.2358 9.26937 17.032C9.26937 17.032 7.11399 19.9089 7.05019 22.5145C7.58711 23.6447 8.13574 24.725 8.693 25.7619C9.35074 24.794 10.6856 23.5043 13.3101 22.8662L14.1229 22.6685L14.0708 23.5027C14.0674 23.5585 14.0181 24.2649 13.7456 25.1423C14.2184 25.0379 14.9517 24.7712 15.4245 24.0968C15.6002 23.815 15.7373 23.5092 15.8144 23.1763C15.8144 23.1763 16.1778 24.1799 15.1009 25.4656C14.7245 26.6753 13.9901 28.406 12.6601 29.5559C12.6601 29.5559 14.1808 28.7469 15.1807 28.9828C15.1807 28.9828 13.2704 30.9207 13.7207 33.6267C13.7817 33.7416 13.8449 33.8552 13.9108 33.9664C14.5692 34.8425 15.2279 35.6715 15.8831 36.4476C16.3368 34.4554 17.3145 32.9046 18.2207 31.8197C17.6961 31.6484 17.0353 31.4594 16.6189 31.3433L15.5552 31.5844L16.2518 30.368C16.8509 29.3212 17.7084 28.3626 18.5483 27.5668Z" fill="#FED81C"/>
<path fill-rule="evenodd" clip-rule="evenodd" d="M35.7684 20.4984C31.8943 23.4609 30.8384 19.7171 30.8384 19.7171C33.0033 20.6419 34.8132 19.7041 35.1208 19.5283C31.4394 20.8534 30.1843 16.8402 30.1843 16.8402C30.2657 17.1574 30.6957 17.4031 31.1167 17.5731C31.4354 17.6027 31.7846 17.5626 32.0318 17.5207C32.2167 16.7327 33.1802 15.9853 34.631 16.2449C35.2351 16.3533 35.6312 16.7225 35.8926 17.1463L35.8938 17.1352C36.5599 17.2892 36.7762 17.8259 36.8114 18.3769C37.0601 18.0338 37.1788 17.651 37.1788 17.651C37.2675 19.1945 36.6169 20.042 35.7684 20.4984ZM25.451 19.681C25.3949 15.4174 29.4237 16.3126 29.4237 16.3126C26.556 16.9507 25.451 19.681 25.451 19.681ZM33.0499 15.2865C33.0499 15.2865 30.8295 13.2236 27.8841 15.5471C27.8841 15.5471 29.8758 11.6105 33.0499 15.2865ZM37.957 23.1234L37.9573 23.123C41.569 22.715 42.0197 21.5198 42.0197 21.5198C41.5715 21.2926 41.4146 20.9301 41.3669 20.6305C41.0932 20.3524 40.9239 19.9748 40.9723 19.4569C41.0488 18.642 41.1952 18.1561 41.341 17.8629C40.7066 17.2842 39.7925 16.3638 39.1261 15.3281C39.1168 15.4661 39.1175 15.5902 39.1304 15.6918L39.4476 18.1684L38.0137 16.1233C37.7342 15.7241 35.8013 12.9329 34.8459 10.6518C34.7836 10.896 34.7475 11.1172 34.7562 11.2831L34.8338 12.8254L33.7147 11.7599C33.6962 11.742 32.1563 10.2983 30.3782 9.60634C30.1788 10.6481 29.2079 12.041 29.2079 12.041C29.6847 12.017 29.9624 12.4488 29.9624 12.4488C28.5748 12.5187 26.2028 14.5736 25.8748 14.8631C24.9314 16.0189 24.0517 17.5543 23.8557 19.3983L23.9229 19.4193C23.9146 19.4461 23.8828 19.5452 23.8295 19.6992C23.8024 20.1239 23.8091 20.563 23.8625 21.0179C24.212 20.8439 24.6629 20.6782 25.2297 20.5716L26.1932 20.3903C26.1932 20.3903 24.6025 23.3167 25.2935 25.3265C24.9471 24.83 24.7554 24.2757 24.6534 23.7337C24.6962 25.0348 25.0602 26.4511 25.0602 26.4511C24.3957 25.9113 23.9287 23.6105 23.9287 23.6105C23.5284 23.8855 23.1902 24.8895 23.1902 24.8895L22.715 24.1812C22.5384 24.5489 22.2764 24.8787 22.0295 25.1404L23.7947 25.0514L21.8483 26.3014C21.8393 26.3073 21.5733 26.4807 21.1699 26.7772C20.3392 27.8332 19.8871 29.0244 19.692 29.6443C20.0217 29.6655 20.3293 29.7148 20.5821 29.8072L21.6988 30.2152L20.7214 30.8918C20.7063 30.9026 19.9992 31.4067 19.1843 32.349C18.5707 33.8623 18.7904 35.0735 19.1766 35.9182C19.777 33.2369 20.882 31.4735 20.9393 31.3833C19.8365 34.4896 20.154 37.1488 20.1718 37.2889L20.1728 37.2895C27.706 31.5816 29.5362 39.9801 29.5362 39.9801C29.7411 39.6195 30.2374 40.6133 30.8094 40.5846C31.3818 40.5557 31.6882 39.6805 31.8962 39.3833C31.9973 39.2389 32.3773 39.3824 32.7407 39.5675C32.6948 39.2315 32.5943 38.8231 32.4112 38.327C31.3867 35.5514 29.6049 34.796 29.53 34.7649L29.1765 34.6205C29.4021 28.9911 26.2441 27.7479 24.7896 27.4729C25.8915 27.645 26.7751 28.0537 27.4871 28.5868C27.4646 28.5609 27.4492 28.5433 27.4492 28.5433C29.2011 28.7574 29.4721 29.2532 29.4721 29.2532C29.1996 27.6432 29.6598 26.028 29.6598 26.028C29.0008 25.9094 27.9849 26.4945 27.9849 26.4945C27.9926 26.1699 28.041 25.8312 28.1054 25.5115L27.3823 25.6492L27.7127 24.6539C27.84 24.2711 28.0379 23.9474 28.2604 23.6752C27.7269 22.8191 27.7282 21.3853 27.7288 21.2953C27.5478 20.8285 27.4723 20.4753 27.4646 20.4377C27.4646 20.4377 28.5776 22.5983 31.5726 23.1369L30.6171 23.5258C31.5716 23.6302 32.3894 24.3096 32.3894 24.3096L32.3823 24.3198L32.39 24.3222L32.0716 24.9606C31.9572 25.1891 31.7402 25.6834 31.5858 26.1998C32.7654 24.9899 34.3416 25.3459 34.3416 25.3459C33.4055 25.7434 33.1365 27.9856 33.1365 27.9856C36.1345 27.095 40.2036 24.5975 41.2833 23.9163C40.3849 24.3207 38.1158 24.3595 38.1158 24.3595C37.8152 24.7533 37.1211 24.6098 37.0046 24.5824C36.7124 24.7192 36.4588 24.7632 36.4588 24.7632C37.5865 23.9905 37.1843 21.7296 37.1843 21.7296C37.8029 22.0742 37.9321 22.7732 37.957 23.1234Z" fill="#FED81C"/>
<path fill-rule="evenodd" clip-rule="evenodd" d="M36.6872 19.7749C36.6872 19.7749 36.689 19.7694 36.689 19.7688C36.6854 19.7737 36.6817 19.7785 36.6781 19.7834C36.6811 19.7804 36.6842 19.7779 36.6872 19.7749Z" fill="#41886D"/>
<path fill-rule="evenodd" clip-rule="evenodd" d="M30.6712 25.1531C30.4425 25.7505 30.1932 26.5755 30.2283 27.269L30.2804 28.2988C30.715 26.9383 33.6354 25.8426 33.6354 25.8426C33.01 25.7095 32.2456 25.9177 31.6295 26.1653C31.7842 25.6424 32.0052 25.1389 32.1208 24.9076L32.4392 24.2692L31.7611 24.0472C31.2553 23.8815 30.4342 23.9056 29.7037 23.9773C30.0036 23.7482 30.2684 23.6352 30.2721 23.6333L30.6419 23.4827L31.6218 23.0839C28.6268 22.5453 27.5138 20.3847 27.5138 20.3847C27.5215 20.4223 27.5976 20.7774 27.7792 21.2458C27.9909 21.7918 28.3466 22.4927 28.9125 23.0328C28.71 23.192 28.4986 23.3903 28.3059 23.6269C28.0846 23.8982 27.8883 24.2203 27.7619 24.6009L27.4315 25.5962L28.158 25.4579L28.4625 25.4001C29.0913 25.2806 30.0033 25.1623 30.6712 25.1531Z" fill="#1A1919"/>
<path fill-rule="evenodd" clip-rule="evenodd" d="M35.3052 17.0452C35.439 17.1965 35.5916 17.4 35.5765 17.6156C35.5645 17.7887 35.492 17.9245 35.3752 18.0227C35.3678 18.0332 35.3629 18.0439 35.3539 18.0541C35.2377 18.1896 35.0787 18.2441 34.912 18.2592C34.8448 18.2832 34.7711 18.2965 34.6919 18.2959C34.0234 18.2894 33.5814 17.2984 34.1023 16.8331C34.469 16.5054 35.0137 16.7151 35.3052 17.0452ZM33.1101 17.4109C33.5071 17.3909 33.5382 18.0064 33.1409 18.0267C32.7439 18.0468 32.7131 17.4309 33.1101 17.4109ZM32.0508 17.4146C32.0273 17.5193 32.0162 17.6246 32.0212 17.7284C32.0212 17.7284 31.6085 17.6397 31.1751 17.4694C30.7424 17.2991 30.2893 17.0475 30.2054 16.7211C30.2054 16.7211 31.4716 20.7747 35.1937 19.392C35.1937 19.392 34.4555 20.7408 32.412 20.8147C32.412 20.8147 34.4395 21.1491 35.8579 20.3389C36.1479 20.1732 36.4114 19.9589 36.6281 19.6845C36.63 19.6821 36.6318 19.6796 36.6337 19.6771C37.0214 19.1819 37.2553 18.4933 37.1999 17.5319C37.1999 17.5319 37.0815 17.9144 36.8328 18.2571C36.7193 18.4133 36.5794 18.5611 36.4108 18.6606C36.4108 18.6606 36.3664 17.7632 35.9152 17.0296C35.6541 16.6047 35.2575 16.2342 34.6521 16.1258C33.1936 15.865 32.228 16.6216 32.0508 17.4146Z" fill="#1A1919"/>
<path fill-rule="evenodd" clip-rule="evenodd" d="M33.2137 15.1786C30.0397 11.5026 28.048 15.4391 28.048 15.4391C30.9933 13.1156 33.2137 15.1786 33.2137 15.1786Z" fill="#1A1919"/>
<path fill-rule="evenodd" clip-rule="evenodd" d="M23.3106 13.8515C23.7486 13.8733 24.2165 13.9777 24.6877 14.2149C24.0987 12.1648 22.1918 11.1461 22.1918 11.1461C22.1918 11.1461 23.158 12.5113 23.3121 13.8512L23.3106 13.8515Z" fill="#A76521"/>
<path fill-rule="evenodd" clip-rule="evenodd" d="M23.8244 15.8667C24.0093 15.584 24.206 15.3213 24.4113 15.0786C23.7603 14.273 22.4417 14.204 21.7412 14.2299C21.7455 14.233 22.2318 14.573 22.4128 15.2132C22.4128 15.2132 21.2998 16.3597 20.0342 15.8159C20.205 15.9874 20.5829 16.2892 21.0474 16.178L21.1334 16.1571C22.0611 15.9341 23.0788 15.6909 23.8244 15.8667Z" fill="#A76521"/>
<path fill-rule="evenodd" clip-rule="evenodd" d="M22.7415 14.2445C22.5493 14.2329 22.3675 14.2281 22.1918 14.2256C22.3675 14.2281 22.5499 14.2329 22.7415 14.2445Z" fill="#E1E2E0"/>
<path fill-rule="evenodd" clip-rule="evenodd" d="M24.3493 14.8415C24.418 14.8981 24.4831 14.9582 24.5482 15.019V15.0184C24.4831 14.9576 24.4174 14.8981 24.3493 14.8415Z" fill="#E1E2E0"/>
<path fill-rule="evenodd" clip-rule="evenodd" d="M22.7624 10.2447C22.3275 10.431 19.691 11.7339 20.0717 15.7235C21.3372 16.2673 22.4502 15.1208 22.4502 15.1208C22.2696 14.4818 21.7848 14.1418 21.7789 14.1378C21.4981 14.1477 21.3157 14.1729 21.3157 14.1729C21.3619 14.1424 21.4137 14.1119 21.4679 14.0814C21.4821 14.0738 21.4969 14.0661 21.5117 14.058C21.5573 14.034 21.6051 14.01 21.6553 13.9866C21.6689 13.9804 21.6818 13.9743 21.6954 13.9681C21.8313 13.9075 21.9826 13.8514 22.1472 13.8037C22.1482 13.8037 22.1488 13.8034 22.1494 13.8031C22.4912 13.7048 22.8882 13.6466 23.3148 13.6676L23.3163 13.6673C23.1622 12.3273 22.1959 10.9622 22.1959 10.9622C24.2286 11.3129 25.2516 12.7961 25.7149 13.7698C25.7411 13.7492 25.767 13.731 25.7929 13.711C25.7263 13.0658 25.4701 11.5054 24.5239 10.7072C24.0557 10.3127 23.4791 10.1606 22.7624 10.2447Z" fill="#D19627"/>
<path fill-rule="evenodd" clip-rule="evenodd" d="M32.9912 18.2286C33.396 18.2086 33.3642 17.5936 32.9595 17.6136C32.5548 17.6336 32.5862 18.2486 32.9912 18.2286Z" fill="#FFFFFE"/>
<path fill-rule="evenodd" clip-rule="evenodd" d="M34.1329 16.8538C33.612 17.3191 34.054 18.3101 34.7225 18.3163C34.8017 18.3172 34.8754 18.304 34.9426 18.2799C35.1093 18.2649 35.2684 18.2103 35.3849 18.0745C35.3935 18.0644 35.3985 18.0536 35.4058 18.0434C35.5227 17.9449 35.5951 17.8094 35.6071 17.6363C35.6222 17.4208 35.4697 17.2172 35.3359 17.0657C35.0443 16.7356 34.4997 16.5261 34.1329 16.8538Z" fill="#FFFFFE"/>
<path fill-rule="evenodd" clip-rule="evenodd" d="M40.0685 10.5302C40.0849 10.7206 40.1025 10.924 40.1202 11.1378C40.1025 10.924 40.0849 10.7206 40.0685 10.5302Z" fill="#DEDFDE"/>
<path fill-rule="evenodd" clip-rule="evenodd" d="M41.2829 16.2061C40.7626 15.6755 40.0207 14.6263 40.0207 14.6263C39.7205 14.1523 39.4949 13.6722 39.4188 13.2229L38.995 10.7196L38.2235 13.1389C38.1985 13.2177 38.0873 13.574 37.9822 14.0295C36.888 12.3102 35.4887 9.86009 35.4363 8.69141L35.4088 8.07519C36.8695 8.43796 38.3264 8.842 39.7778 9.2953L39.7859 9.28884C41.642 9.87487 42.7586 10.4163 42.8748 10.4735C42.419 12.4601 41.8848 14.3735 41.2829 16.2061ZM42.9044 21.3502L42.8573 21.3705C43.0419 21.8022 42.6696 22.1856 42.3749 22.4077C42.3749 22.4077 40.7108 23.3777 37.8509 23.3472C37.8509 23.3472 37.8549 23.2699 37.8469 23.1486C37.8237 22.8025 37.6986 22.0911 37.0732 21.7428C37.0732 21.7428 37.4754 24.0038 36.3477 24.7764C36.3477 24.7764 36.5912 24.7336 36.8757 24.6037C37.1885 24.4605 37.5513 24.2117 37.6983 23.7919C37.6983 23.7919 40.156 23.9413 41.7625 23.5043C41.7819 23.7097 41.8041 24.054 41.801 24.5646C41.2779 25.227 37.4798 27.0106 34.1627 28.3231L33.8434 28.4494C33.8434 28.4494 32.392 32.151 30.1167 33.264C29.8566 32.0562 29.1563 29.906 27.3394 28.5701C26.6338 28.0512 25.7603 27.6552 24.6785 27.4861C26.133 27.7611 29.291 29.0043 29.0654 34.6337L29.4189 34.7782C29.4938 34.8093 31.2756 35.5647 32.3001 38.3403C32.4857 38.8428 32.5865 39.2552 32.6315 39.5936C32.7058 40.1476 32.6302 40.5033 32.5273 40.7248C32.3834 41.0333 32.1621 41.1192 32.1658 41.1189L31.7299 41.243L31.7182 41.6951C31.6889 42.8142 30.1512 42.9168 30.0884 42.9205L29.7848 42.9359L29.6119 43.1859C29.3224 43.6054 29.0053 43.8289 28.6416 43.8696C28.2686 43.9105 27.8661 43.7513 27.5628 43.5746L28.7726 41.9282L28.6132 41.5953C26.5534 37.2932 21.9431 37.1716 20.0623 37.3154C20.0623 37.3154 19.6952 34.5878 20.8282 31.3965C20.7709 31.4868 19.6628 33.2519 19.0631 35.9376C18.9225 36.5658 18.8097 37.2439 18.745 37.9636L18.6722 38.7797L19.4773 38.6233C19.6721 38.5851 23.4586 37.8891 26.0276 40.1538C26.4511 40.3176 26.8628 41.0629 26.8628 41.0629C26.8638 41.0638 26.8644 41.065 26.865 41.066C25.6833 42.3859 24.6881 43.3889 23.9896 44.0608C23.9847 44.0547 23.9788 44.0491 23.9751 44.042C23.6521 43.876 22.5626 43.0954 22.2109 42.8416C20.4889 41.4472 18.6121 39.7079 16.6839 37.5565C16.9647 35.2438 18.1051 33.478 19.0852 32.3484C19.8949 31.4153 20.5952 30.9155 20.6103 30.905L21.5874 30.2285L20.471 29.8204C20.2192 29.7283 19.9144 29.6778 19.5858 29.656C19.0387 29.6199 18.4266 29.6643 17.8844 29.7311C18.9336 28.4346 20.2916 27.3522 21.0834 26.772C21.4733 26.4862 21.7282 26.3202 21.7372 26.3147L23.6836 25.0647L21.9316 25.1531L20.4846 25.2261C21.3799 24.341 22.0925 23.2314 22.6254 22.2204C22.6261 22.2244 22.6261 22.2284 22.6267 22.2327L22.8215 23.5569L23.7088 22.5438C23.7218 22.5287 23.9456 22.2796 24.4698 22.0551C24.4276 22.5339 24.427 23.1332 24.5429 23.7488C24.6449 24.2902 24.8366 24.8439 25.1824 25.3397C24.4914 23.33 26.0821 20.4035 26.0821 20.4035L25.1186 20.5849C24.5518 20.6914 24.1009 20.8571 23.7514 21.0311C23.698 20.5763 23.6913 20.1371 23.7184 19.7125C23.7717 19.5585 23.8035 19.4593 23.8115 19.4325L23.7446 19.4116C23.9378 17.5919 24.7969 16.0731 25.7264 14.9225C27.0034 13.3418 28.4135 12.458 28.4135 12.458C28.4024 12.4611 28.2058 12.5193 27.8941 12.6461C28.3457 11.7288 28.8669 10.5542 29.2676 9.32364C29.6051 9.38646 29.9413 9.49209 30.2705 9.62019C32.0471 10.3128 33.5851 11.7552 33.6036 11.7731L34.7227 12.8386L34.6451 11.2964C34.6364 11.1304 34.6725 10.9093 34.7348 10.6651C35.6902 12.9461 37.6231 15.7374 37.9026 16.1365L39.3365 18.1816L39.0193 15.7051C39.0064 15.6034 39.0058 15.4793 39.015 15.3414C39.6814 16.377 40.5956 17.2975 41.2299 17.8761C41.0841 18.1693 40.9377 18.6552 40.8612 19.4701C40.8128 19.9878 40.9814 20.3659 41.2548 20.6443C41.6842 21.081 42.374 21.2698 42.9044 21.3502ZM35.2196 29.5808L31.9919 35.1967C31.9919 35.1967 31.3588 34.5875 30.9159 34.2688C31.835 33.5793 34.1331 31.6774 34.945 29.3554L34.9477 29.3576C34.9493 29.3499 34.9514 29.3425 34.9527 29.3348C35.1358 29.2615 35.3136 29.19 35.4884 29.1192C35.398 29.2757 35.3068 29.4241 35.2162 29.5784L35.2196 29.5808ZM23.9671 44.0827L23.9551 44.0624C23.9551 44.0624 23.9653 44.0664 23.9785 44.0716C23.9748 44.0753 23.9708 44.0793 23.9671 44.0827ZM24.6529 14.1955C23.2628 13.497 21.894 13.9309 21.2767 14.3377C21.2767 14.3377 23.4996 14.0242 24.4097 15.151C24.2045 15.3937 24.0078 15.6564 23.8229 15.9391C23.0773 15.7633 22.0596 16.0065 21.1318 16.2295L21.0458 16.2504C20.5813 16.3616 20.2035 16.0598 20.0327 15.8883C19.6521 11.8987 22.2886 10.5958 22.7235 10.4095C23.4401 10.3254 24.0167 10.4775 24.4849 10.872C25.4312 11.6702 25.6873 13.2306 25.7539 13.8758C25.728 13.8958 25.7021 13.914 25.6759 13.9346C25.2126 12.9609 24.1897 11.4778 22.1569 11.127C22.1569 11.127 24.0639 12.1457 24.6529 14.1955ZM13.4988 33.6557C12.2868 32.0272 11.0774 30.2251 9.89507 28.2338C12.6555 27.3094 14.105 26.2774 14.8562 25.3819C15.9359 24.0946 15.5718 23.0889 15.5718 23.0889C15.497 23.4119 15.3663 23.7097 15.198 23.9847C14.7329 24.745 13.9734 25.3249 13.2537 25.7394C13.3539 25.5041 13.4359 25.2726 13.5043 25.0514C13.7759 24.1756 13.8249 23.471 13.8283 23.4153L13.8803 22.581L13.0676 22.7788C10.4431 23.4168 9.10818 24.7065 8.45045 25.6744C7.89318 24.6376 7.34455 23.5573 6.80764 22.4271C6.87144 19.8215 9.02682 16.9446 9.02682 16.9446C7.35134 18.1484 6.48431 19.6207 6.03771 20.7564C6.03247 20.7447 6.02723 20.7324 6.02199 20.7204C5.60558 19.7861 5.19719 18.8212 4.79836 17.8247C5.59572 17.0699 7.73291 15.1692 9.9789 14.1933C10.326 14.0427 10.6755 13.9121 11.0232 13.8133L12.126 13.4998L11.2559 12.7536C11.2136 12.7176 10.5429 12.1537 9.40685 11.8399C10.6909 11.2751 12.5091 10.7107 14.3189 10.9524C14.3189 10.9524 11.6615 9.17274 4.89668 13.1644L7.34764 12.8941C8.16935 12.8032 8.85144 12.9347 9.36771 13.1145C7.25887 14.0584 5.32541 15.6681 4.31599 16.5886C4.23586 16.3792 4.15726 16.1651 4.07805 15.953C3.59969 14.67 3.13644 13.3397 2.69199 11.9569C4.12459 9.92723 6.96822 9.68733 6.99596 9.68517L7.85959 9.6242L7.51962 8.82906C7.20092 8.08289 6.38353 7.44604 5.64195 6.99397C7.91476 6.53943 10.673 6.84923 10.7069 6.85292L11.5949 6.95609L11.3758 6.09043C11.1655 5.26019 10.7994 4.61718 10.4274 4.13985C14.3387 4.20021 16.7477 5.70087 16.7733 5.71719L18.0761 6.55482L17.7057 5.05201C17.4449 3.99419 16.9468 3.08942 16.499 2.43317C19.7926 2.96347 22.6455 5.8222 22.6775 5.85485L23.6364 6.82767L23.7323 5.46621C23.7936 4.59316 23.6734 3.85746 23.4925 3.27142C25.5736 4.56575 26.6989 7.07619 26.7121 7.10637L26.9377 7.62188L27.4719 7.4442C27.9089 7.29884 28.297 7.04755 28.6234 6.77039C28.4508 8.09891 27.916 9.59063 27.3628 10.8606C27.135 11.3832 26.9045 11.8692 26.6942 12.2892C26.4535 11.4762 26.0294 10.5647 25.2838 9.93431C24.5281 9.29469 23.5859 9.04863 22.4827 9.1983L22.3539 9.23033C22.32 9.24295 19.5809 10.2937 18.9099 13.6036C17.7781 13.7268 14.8891 14.124 12.5433 15.1458C12.3947 15.2105 12.248 15.2773 12.1044 15.3472L10.4967 16.1291L12.2455 16.5033C12.26 16.5063 13.2423 16.7219 14.2539 17.2448C12.895 17.4422 11.1098 17.9975 10.0855 19.5083C13.5638 17.2162 17.6366 18.4951 17.6366 18.4951L16.4817 17.3335C15.7993 16.6471 14.9246 16.1661 14.1688 15.8449C15.9118 15.2678 17.7756 14.9832 18.7678 14.8619C18.7545 15.285 18.7715 15.7358 18.8279 16.2184L18.847 16.3819L18.9453 16.5144C18.9946 16.5809 19.0584 16.6526 19.1284 16.7259C19.4998 17.1136 20.1452 17.5451 20.9441 17.5047C21.0705 17.4983 21.2002 17.4801 21.3334 17.4481L21.4203 17.4271C21.4292 17.425 21.44 17.4225 21.4493 17.4204C21.2606 17.9334 20.9974 18.3916 20.7133 18.7908C19.923 19.9003 18.9663 20.5412 18.9663 20.5412C19.9439 20.4454 20.688 20.0586 21.2529 19.5665C22.157 18.7794 22.6002 17.7218 22.7863 17.1435C22.9352 17.1213 23.0751 17.1062 23.1984 17.1004C22.9414 17.6938 22.7413 18.3556 22.6251 19.0947C22.561 19.2918 22.1345 20.5652 21.3756 21.9405C20.6233 23.305 19.5442 24.77 18.1677 25.3847L15.1598 26.728L17.0337 26.6334L19.3993 26.5142C19.0557 26.7954 18.6833 27.1218 18.3076 27.4775C17.4671 28.2736 16.609 29.2328 16.0092 30.2805L15.3126 31.4972L16.3825 31.2546L16.6811 31.1868C17.2227 31.0639 18.0324 30.9303 18.7514 30.8869C18.511 31.1252 18.2484 31.4079 17.9797 31.7294C17.0732 32.815 16.0946 34.3674 15.6406 36.3601C14.9292 35.5173 14.2135 34.6165 13.4988 33.6557ZM9.1464 26.9389C9.38897 26.3803 10.1833 25.0422 12.4465 24.2449C12.2721 24.9825 11.904 26.0092 11.1455 26.6913L9.73479 27.9607C9.53784 27.6253 9.34181 27.285 9.1464 26.9389ZM1.49579 7.9517C1.95658 7.81651 2.70062 7.61295 3.69493 7.38568L3.77291 7.41771C4.36007 7.65946 5.24219 8.13001 5.82996 8.63721C4.84767 8.87033 3.38548 9.39508 2.25401 10.5545C1.9948 9.70334 1.74021 8.84015 1.49579 7.9517ZM29.8399 6.91236C31.4149 7.17843 32.9869 7.49778 34.5548 7.86763L34.2681 8.44504C34.2068 8.56915 33.8304 9.34273 33.5974 10.156C32.6974 9.45698 31.1973 8.46198 29.6091 8.13155C29.7086 7.72105 29.7875 7.3127 29.8399 6.91236ZM44.6024 9.5931L44.6021 9.5934C43.6216 9.17982 41.7412 8.59163 40.0096 8.08043C38.7996 7.70503 37.5858 7.35982 36.3689 7.04632C36.2857 7.02353 36.2376 7.0106 36.2376 7.0106L36.2423 7.01429C35.9454 6.93854 35.6486 6.86186 35.3515 6.78949L35.3299 6.30477L35.1166 6.73498C33.3832 6.31955 31.6442 5.96633 29.9019 5.67562C29.8933 5.44835 29.8766 5.22508 29.8405 5.01167L29.5561 3.33147L28.6995 4.80534C28.6961 4.81119 28.5245 5.09512 28.2434 5.41724C27.8615 5.36212 27.4796 5.31346 27.0977 5.2645C26.243 3.93168 24.6532 2.0162 22.3209 1.44711L20.409 0.983635L21.7165 2.45781C21.7433 2.48799 22.1946 3.00843 22.4069 3.97571C20.9071 2.7787 18.1242 0.974704 15.1212 1.12622L13.7256 1.19643L14.7187 2.1788C14.7283 2.18866 15.4279 2.88864 15.9833 3.96925C14.5381 3.39153 12.0754 2.71495 8.86931 2.95639L6.85264 3.11067L8.61257 4.10659C8.62058 4.11121 9.14979 4.43272 9.61675 5.12838C4.0238 5.7834 0.71476 6.8985 0.544623 6.95701L0 7.14394L0.149486 7.69949C5.55935 27.8006 14.8312 38.5235 21.6567 43.9795C21.8416 44.1273 22.0247 44.2693 22.2072 44.4097C22.2087 44.4113 22.21 44.4128 22.2115 44.414C22.9414 45.0644 24.3678 45.8189 24.3678 45.8189L24.6634 45.5424C24.664 45.5427 24.6646 45.5427 24.6649 45.543C24.7118 45.4993 24.7654 45.4478 24.8156 45.4001L24.8677 45.3518L24.8674 45.3511C25.2216 45.0139 25.6614 44.5831 26.173 44.059L26.2791 44.1581C26.3201 44.1963 26.4766 44.337 26.7161 44.4987C27.5517 44.9684 27.9015 45.034 27.9015 45.034C28.1321 45.0885 28.3777 45.1183 28.6339 45.1054C28.6789 45.1032 28.7242 45.0998 28.7698 45.0946C29.4189 45.0247 29.9829 44.6977 30.4505 44.1212C31.3542 43.9915 32.6715 43.4563 32.9129 42.1059C33.1373 41.9584 33.4082 41.7133 33.6101 41.316C33.9436 40.6601 33.9781 39.8092 33.7238 38.7834L33.7343 38.7723C33.5641 38.0486 33.1169 37.1125 32.944 36.7657C32.8555 36.5976 32.7646 36.4399 32.6725 36.2871C34.3615 33.9538 36.1224 31.2318 37.7938 28.147C38.1486 27.9906 38.4824 27.8403 38.7909 27.6971C40.3098 26.9725 42.2612 25.7647 42.2612 25.7647V25.765C43.0249 25.1728 43.0311 24.8577 43.0329 24.6776C43.0394 24.1402 43.0203 23.7473 42.9984 23.4809C43.6429 23.0319 44.3595 22.2032 44.0852 21.1657C45.4321 20.1057 44.5784 17.2205 44.5784 17.2205C44.3068 17.3394 43.3279 17.3923 42.5746 17.4157C42.5574 17.4016 42.5361 17.3828 42.5179 17.3677C43.18 15.4242 43.7702 13.3914 44.2723 11.2745L44.2837 11.2813C44.2797 11.2776 44.2772 11.2739 44.2732 11.2702C44.3925 10.7679 44.5124 10.2669 44.6212 9.75539L44.6227 9.756L44.6566 9.61619L44.6024 9.5931Z" fill="#1A1919"/>
</svg>
