<svg width="40" height="40" viewBox="0 0 40 40" fill="none" xmlns="http://www.w3.org/2000/svg">
<g clip-path="url(#clip0_405_144)">
<path d="M31.6667 3.33334H8.33335C7.41288 3.33334 6.66669 4.07954 6.66669 5.00001V35C6.66669 35.9205 7.41288 36.6667 8.33335 36.6667H31.6667C32.5872 36.6667 33.3334 35.9205 33.3334 35V5.00001C33.3334 4.07954 32.5872 3.33334 31.6667 3.33334Z" stroke="#8494A1" stroke-width="1.66667" stroke-linejoin="round"/>
<path d="M17.5 11.6667H27.5" stroke="#8494A1" stroke-width="1.66667" stroke-linecap="round" stroke-linejoin="round"/>
<path d="M17.5 20H27.5" stroke="#8494A1" stroke-width="1.66667" stroke-linecap="round" stroke-linejoin="round"/>
<path d="M17.5 28.3333H27.5" stroke="#8494A1" stroke-width="1.66667" stroke-linecap="round" stroke-linejoin="round"/>
<path fill-rule="evenodd" clip-rule="evenodd" d="M12.5 13.3333C13.4205 13.3333 14.1666 12.5872 14.1666 11.6667C14.1666 10.7462 13.4205 10 12.5 10C11.5795 10 10.8333 10.7462 10.8333 11.6667C10.8333 12.5872 11.5795 13.3333 12.5 13.3333Z" fill="#8494A1"/>
<path fill-rule="evenodd" clip-rule="evenodd" d="M12.5 21.6667C13.4205 21.6667 14.1666 20.9205 14.1666 20C14.1666 19.0795 13.4205 18.3333 12.5 18.3333C11.5795 18.3333 10.8333 19.0795 10.8333 20C10.8333 20.9205 11.5795 21.6667 12.5 21.6667Z" fill="#8494A1"/>
<path fill-rule="evenodd" clip-rule="evenodd" d="M12.5 30C13.4205 30 14.1666 29.2538 14.1666 28.3333C14.1666 27.4128 13.4205 26.6667 12.5 26.6667C11.5795 26.6667 10.8333 27.4128 10.8333 28.3333C10.8333 29.2538 11.5795 30 12.5 30Z" fill="#8494A1"/>
</g>
<defs>
<clipPath id="clip0_405_144">
<rect width="40" height="40" fill="white"/>
</clipPath>
</defs>
</svg>
